<?xml version="1.0" encoding="utf-8"?>
<!-- Generator: Adobe Illustrator 24.0.3, SVG Export Plug-In . SVG Version: 6.00 Build 0)  -->
<svg version="1.1" id="Layer_1" xmlns="http://www.w3.org/2000/svg" xmlns:xlink="http://www.w3.org/1999/xlink" x="0px" y="0px"
	 viewBox="0 0 2500 1833.92" style="enable-background:new 0 0 2500 1833.92;" xml:space="preserve">
<style type="text/css">
	.st0{fill:#B98B16;}
	.st1{fill:#F2B000;}
	.st2{fill:#886C41;}
	.st3{fill:#5A943B;}
	.st4{fill:#006F43;}
	.st5{fill:#BD7723;}
	.st6{fill:#6E4917;}
	.st7{fill:#6C3718;}
	.st8{fill:#5D7431;}
	.st9{fill:#545122;}
	.st10{fill:#35301E;}
	.st11{fill:#40522D;}
	.st12{fill:#313621;}
	.st13{fill:#322B1A;}
	.st14{fill:#1E271F;}
	.st15{fill:#0B582C;}
	.st16{fill:#194625;}
	.st17{fill:#182C1D;}
	.st18{fill:#182D1E;}
	.st19{fill:#19211B;}
	.st20{fill:#182E1F;}
	.st21{fill:#1C241D;}
	.st22{fill:#19221C;}
	.st23{fill:#1A211B;}
	.st24{fill:#1A4726;}
	.st25{fill:#1B3222;}
	.st26{fill:#1E261F;}
	.st27{fill:#1C1A17;}
	.st28{fill:#956E41;}
	.st29{fill:#FFFFFF;}
	.st30{opacity:0.95;fill:#FFFFFF;}
	.st31{opacity:0.6;fill:#FFFFFF;}
	.st32{opacity:0.45;}
	.st33{opacity:0.85;}
	.st34{opacity:0.7;fill:#FFFFFF;}
</style>
<g>
	<g>
		<polygon class="st29" points="963.99,1818.35 963.23,1819.14 963.23,1831.83 963.99,1832.58 976.67,1832.58 977.41,1831.83 
			977.41,1819.14 976.67,1818.35 		"/>
		<polygon class="st29" points="77.54,1818.35 76.82,1819.14 76.82,1831.83 77.54,1832.58 90.25,1832.58 90.99,1831.83 
			90.99,1819.14 90.25,1818.35 		"/>
		<polygon class="st29" points="940.56,1818.35 939.84,1819.14 939.84,1831.83 940.56,1832.58 953.28,1832.58 953.99,1831.83 
			953.99,1819.14 953.28,1818.35 		"/>
		<polygon class="st29" points="100.97,1818.35 100.23,1819.14 100.23,1831.83 100.97,1832.58 113.6,1832.58 114.38,1831.83 
			114.38,1819.14 113.6,1818.35 		"/>
		<polygon class="st29" points="1054.3,1818.35 1053.49,1819.14 1053.49,1831.83 1054.3,1832.58 1066.93,1832.58 1067.69,1831.83 
			1067.69,1819.14 1066.93,1818.35 		"/>
		<path class="st29" d="M1315.97,1682.8l-0.79-0.67l-10.08,2.69l-0.6,0.23l-0.74,0.67v97.85v1.76l1.32,4.59h-89.76
			c-2.13-1.41-3.98-3.75-3.98-6.07v-10.54v-21.17c0-11.79,6.58-18.07,16.03-18.07h13.83c9.43,0,15.57,3.13,17.42,4.19l0.83-0.44
			l0.44-1.97c0,0-3.34-12.72-20.36-12.72h-12.67c-15.73,0-27.68,9.29-27.68,26.36v27.1c0,4.8,1.32,10.49,5.7,13.32h-63.91v-64.07
			l-0.79-0.72l-10.01,2.76l-1.39,0.37v73.92c0,11.44-6.16,20.25-17.7,20.25c-4.38,0-12.9-0.65-16.77-6.83l-0.83-0.23l-2.29,1.16
			l-0.32,0.86c4.45,10.03,15.52,14.43,23.54,14.43c13.62,0,25.3-5.95,26.45-29.67h167.88l10.36-2.5l0.72-0.9l-3.78-13.39
			L1315.97,1682.8z"/>
		<path class="st29" d="M1341.33,1684.83l-0.6,0.23l-0.72,0.67v116.38c11.33-6.35,12.16-19.69,12.16-19.69v-99.61l-1.02-0.69
			L1341.33,1684.83z"/>
		<path class="st29" d="M1083.88,1785.42v-59.6l-0.57-0.76l-10.22,2.64l-0.57,0.19l-0.76,0.76v56.76l1.14,4.54h-62.63
			c-9.08,0-16.65-3.59-16.65-16.65v-47.49l-0.76-0.76l-10.03,2.64l-0.76,0.19l-0.57,0.76v44.65c0,13.05-7.38,16.65-16.46,16.65
			H863.31c-8.89,0-16.46-3.59-16.46-16.65v-53.35l-0.76-0.76l-10.03,2.84c0,0-8.7-4.73-17.6-4.73c-15.71,0-30.09,9.28-30.28,26.3
			v25.91c0.19,17.79,12.49,26.68,25.92,26.68c15.51,0,20.44-9.08,21.57-11.92c2.84,11.92,11.54,17.78,22.33,17.78h112.15
			c7,0,13.05-2.46,17.41-7.57c4.16,5.11,10.41,7.57,17.6,7.57h71.52l10.22-2.46l0.76-0.95L1083.88,1785.42z M834.74,1781.63
			c-2.27,1.33-5.29,3.59-15.32,3.59c-9.09,0-18.92-4.73-18.92-17.78v-21.18c0-11.73,8.89-17.98,18.35-17.98
			c10.22,0,15.89,5.49,15.89,16.08V1781.63z"/>
		<polygon class="st29" points="840.08,1703.32 840.87,1702.56 840.87,1689.88 840.08,1689.1 827.45,1689.1 826.69,1689.88 
			826.69,1702.56 827.45,1703.32 		"/>
		<polygon class="st29" points="816.73,1703.32 817.45,1702.56 817.45,1689.88 816.73,1689.1 804.01,1689.1 803.3,1689.88 
			803.3,1702.56 804.01,1703.32 		"/>
		<polygon class="st29" points="30.9,1703.32 31.61,1702.51 31.61,1689.88 30.9,1689.12 18.13,1689.12 17.41,1689.88 17.41,1702.51 
			18.13,1703.32 		"/>
		<polygon class="st29" points="54.26,1703.32 54.96,1702.51 54.96,1689.88 54.26,1689.12 41.52,1689.12 40.81,1689.88 
			40.81,1702.51 41.52,1703.32 		"/>
		<path class="st29" d="M696.43,1785.42v-102.55l-0.95-0.76l-10.03,2.65l-0.57,0.37l-0.76,0.57v99.72l1.33,4.54h-33.11
			c-8.32,0-16.65-1.7-20.25-3.02c1.14-3.22,1.7-7,1.7-11.17v-40.86h-0.38l-1.14-0.76l-9.65,2.65l-0.76,0.18l-0.38,0.38v35.95
			c0,13.05-7.38,17.78-16.08,17.78c-3.4,0-12.3-2.46-15.9-3.4c0.95-3.22,1.7-6.62,1.7-10.79v-42.19l-0.95-0.76l-9.84,2.65
			l-0.76,0.19l-0.56,0.76h-0.19v35.75c0,13.05-6.05,17.78-14.75,17.78c-3.22,0-12.49-2.65-15.52-3.4v-52.98l-0.95-0.76l-9.84,2.65
			l-0.57,0.19l-0.75,0.76v46.91l-1.52,5.49H426.48c-2.08-1.52-3.97-3.78-3.97-6.05v-31.79c0-11.72,6.43-17.97,16.08-17.97h13.81
			c9.28,0,15.52,3.02,17.41,4.16l0.76-0.56l0.37-1.89c0,0-3.4-12.68-20.24-12.68h-12.68c-15.71,0-27.63,9.27-27.63,26.3v27.05
			c0,4.92,1.33,10.6,5.68,13.43h-95.43c-5.49,0-7.57-0.76-8.89-2.26v-61.87l-0.76-0.76l-10.03,2.84c0,0-8.7-4.73-17.6-4.73
			c-15.71,0-30.28,9.27-30.28,26.3v25.92c0,17.78,12.49,26.67,26.11,26.67c15.13,0,19.86-9.08,21-11.92l-0.76,6.81v5.11
			c0,11.54-6.05,20.44-17.78,20.44c-4.16,0-12.87-0.76-16.65-6.81l-0.76-0.38l-2.46,1.14l-0.19,0.94
			c4.35,10.03,15.52,14.38,23.46,14.38c14,0,26.11-6.24,26.68-31.6c2.84,1.14,6.43,1.89,10.59,1.89h220.44l0.76-0.56l4.35-11.73
			c0.57,2.08,5.11,12.3,21.38,12.3c8.7,0,15.32-3.78,18.92-11.16c1.7,3.02,7.57,11.16,22.33,11.16c8.7,0,15.9-3.78,19.87-11.35
			c2.46,4.17,8.32,11.35,21.19,11.35h37.46l10.41-2.46l0.76-0.95L696.43,1785.42z M299.45,1787.69c-2.08,1.14-5.11,3.4-15.13,3.4
			c-9.08,0-18.92-4.73-18.92-17.78v-21.19c0-11.72,8.89-17.97,18.35-17.97c10.21,0,15.7,5.49,15.7,16.08V1787.69z"/>
		<path class="st29" d="M131.81,1785.42l0.19-59.6l-0.95-0.76l-9.84,2.64l-0.76,0.19l-0.76,0.76v56.76l1.33,4.54H77.39
			c-8.89,0-16.46-3.59-16.46-16.65v-53.35l-0.76-0.76l-10.03,2.84c0,0-8.51-4.73-17.6-4.73c-15.7,0-30.09,9.28-30.09,26.3v25.91
			c0,17.79,12.49,26.68,25.92,26.68c15.33,0,20.25-9.08,21.57-11.92c2.84,11.73,11.35,17.78,22.33,17.78h52.34l10.41-2.46l0.57-0.95
			L131.81,1785.42z M48.81,1781.83c-2.08,1.14-5.3,3.4-15.33,3.4c-8.89,0-18.92-4.73-18.92-17.78v-21.18
			c0-11.73,9.08-17.98,18.54-17.98c10.22,0,15.71,5.49,15.71,16.08V1781.83z"/>
		<path class="st29" d="M225.93,1749.52c0-17.12-12.07-26.43-27.77-26.43h-12.65c-16.96,0-20.32,12.74-20.32,12.74l0.46,1.97
			l0.79,0.42c1.81-1.04,7.99-4.1,17.37-4.1h13.88c9.43,0,15.98,6.23,15.98,17.95v33.26l1.32,4.56H175
			c-10.19,0-19.92-2.41-22.08-3.52l-1.04,2.36c1.2,2.73,6.79,13.09,21.75,13.37v0.02h44.94l10.4-2.5l0.76-0.88l-3.8-13.41V1749.52z"
			/>
		<path class="st29" d="M721.72,1684.83l-0.67,0.23l-0.74,0.67v116.38c11.33-6.35,12.28-19.69,12.28-19.69v-99.61l-1.09-0.63
			L721.72,1684.83z"/>
		<polygon class="st29" points="1436.43,1703.32 1437.15,1702.56 1437.15,1689.91 1436.43,1689.12 1423.81,1689.12 1423,1689.91 
			1423,1702.56 1423.81,1703.32 		"/>
		<polygon class="st29" points="1459.82,1703.32 1460.61,1702.56 1460.61,1689.91 1459.82,1689.12 1447.18,1689.12 1446.39,1689.91 
			1446.39,1702.56 1447.18,1703.32 		"/>
		<path class="st29" d="M2062.55,1682.18l-9.75,2.64l-0.67,0.21l-0.72,0.67v116.43c11.35-6.32,12.26-19.71,12.26-19.71v-99.61
			L2062.55,1682.18z"/>
		<path class="st29" d="M2027.34,1785.42v-102.55l-0.76-0.76l-10.02,2.65l-0.57,0.18l-0.75,0.76v99.72l1.33,4.54h-46.93v-20.44
			c0-17.21-12.49-26.49-29.13-26.49c-16.84,0-29.33,9.28-29.33,26.49v20.44h-46.55v-20.44c0-17.21-12.49-26.49-29.32-26.49
			c-16.84,0-29.14,9.28-29.14,26.49v20.44h-58.25c-8.89,0-16.46-3.59-16.46-16.65v-90.44l-0.57-0.76l-10.22,2.65l-0.56,0.18
			l-0.76,0.76v87.6c0,13.05-7.57,16.65-16.46,16.65h-43.52c4.35-2.84,5.86-8.51,5.86-13.43v-16.83c0-17.04-12.11-26.3-27.81-26.3
			h-56.57c-9.84,0-14.19-4.55-14.19-15.14v-6.61c0.19-10.03,4.54-14.01,14.19-14.01l8.32-0.18c9.27,0,15.52,3.22,17.22,4.16
			l0.95-0.38l0.37-1.89c0,0-3.4-12.86-20.24-12.86h-6.62c-15.14,0-26.3,8.52-26.3,23.84v10.22c0,15.33,11.16,23.85,26.3,23.85h56.2
			c9.46,0,15.9,6.24,15.9,17.97v21.57c0,2.27-1.89,4.54-3.97,6.05h-165.82c-9.08,0-16.46-3.59-16.46-16.65v-21.19h-0.19v-32.16
			l-0.76-0.76l-10.03,2.84c0,0-8.51-4.73-17.6-4.73c-15.71,0-30.09,9.28-30.09,26.3v25.91c0,17.79,12.49,26.68,25.92,26.68
			c15.32,0,20.24-9.08,21.38-11.92l0.19,0.18c2.84,11.55,11.54,17.6,22.33,17.6h230.15c7.19,0,13.24-2.46,17.41-7.38
			c4.17,4.92,10.41,7.38,17.41,7.38h65.26c4.16,10.22,14.38,15.71,27.25,15.71c12.87,0,23.08-5.49,27.25-15.71h50.52
			c4.35,10.22,14.57,15.71,27.44,15.71c12.68,0,23.08-5.49,27.25-15.71h52.41l10.4-2.46l0.76-0.95L2027.34,1785.42z
			 M1454.36,1781.83c-2.08,1.14-5.11,3.4-15.32,3.4c-8.9,0-18.74-4.73-18.74-17.78v-21.18c0-11.73,8.9-17.98,18.36-17.98
			c10.22,0,15.7,5.49,15.7,16.08V1781.83z M1852.32,1788.83c0,11.72-6.43,17.97-17.03,17.97c-10.98,0-17.22-6.25-17.22-17.97v-16.84
			c0-11.93,6.25-17.98,17.22-17.98c10.6,0,17.03,6.05,17.03,17.98V1788.83z M1957.52,1788.83c0,11.72-6.43,17.97-17.03,17.97
			c-10.98,0-17.22-6.25-17.22-17.97v-16.84c0-11.93,6.25-17.98,17.22-17.98c10.59,0,17.03,6.05,17.03,17.98V1788.83z"/>
		<g>
			<polygon class="st29" points="1898.25,984.13 1896.95,985.38 1896.95,1007.11 1898.25,1008.41 1919.96,1008.41 1921.28,1007.11 
				1921.28,985.38 1919.96,984.13 			"/>
			<path class="st29" d="M1901.01,1034.89l-2.36,0.62v126.9c0,19.64-10.63,34.75-30.44,34.75c-7.41,0-22.12-0.97-28.91-11.65
				l-1.32-0.46l-3.85,1.92l-0.62,1.48c7.64,17.26,21.45,24.79,35.19,24.79c24.3,0,50.87-11,50.87-56.13v-125.6l-1.32-1.34
				L1901.01,1034.89z"/>
			<polygon class="st29" points="1651.13,1008.43 1652.36,1007.13 1652.36,985.38 1651.13,984.11 1629.38,984.11 1628.01,985.38 
				1628.01,1007.13 1629.38,1008.43 			"/>
			<polygon class="st29" points="1610.91,1008.43 1612.27,1007.13 1612.27,985.38 1610.91,984.11 1589.2,984.11 1587.93,985.38 
				1587.93,1007.13 1589.2,1008.43 			"/>
			<path class="st29" d="M1620.15,1162.34c28.76,0,50.14-15.89,50.14-45.21v-45.04c0-29.32-21.38-45.41-50.14-45.41
				c-28.76,0-50.33,16.09-50.33,45.41v45.04C1569.82,1146.45,1591.39,1162.34,1620.15,1162.34z M1590.83,1076.26
				c0-20.06,10.4-30.65,29.32-30.65c18.35,0,29.33,10.6,29.33,30.65v36.33c0,20.24-10.98,30.84-29.33,30.84
				c-18.92,0-29.32-10.6-29.32-30.84V1076.26z"/>
			<path class="st29" d="M1827.81,1128.54V957.63l-1.76-1.2l-16.84,4.63l-1.14,0.28l-1.23,1.27v199.77
				C1826.26,1151.43,1827.81,1128.54,1827.81,1128.54z"/>
			<path class="st29" d="M1669.19,1188.41c7.64,17.26,21.5,24.83,35.19,24.83c24.3,0,50.82-11.07,50.82-56.17v-125.65l-1.27-1.32
				l-17.28,4.73l-2.27,0.65v126.85c0,19.69-10.73,34.82-30.48,34.82c-7.46,0-22.1-1.02-28.89-11.68l-1.32-0.49l-3.91,1.95
				L1669.19,1188.41z"/>
			<path class="st29" d="M1078.84,957.63l-1.76-1.2l-16.84,4.63l-1.14,0.28l-1.23,1.27v199.77c19.41-10.96,20.96-33.84,20.96-33.84
				V957.63z"/>
			<path class="st29" d="M926.02,1185.47l-1.32-0.49l-3.92,1.95l-0.58,1.48c7.64,17.26,21.5,24.83,35.19,24.83
				c24.3,0,50.82-11.07,50.82-56.17v-125.65l-1.27-1.32l-17.28,4.73l-2.27,0.65v126.85c0,19.69-10.73,34.82-30.48,34.82
				C947.45,1197.14,932.81,1196.12,926.02,1185.47z"/>
			<path class="st29" d="M2062.53,1030.27l-17.41,4.73c0,0-14.57-8.32-30.08-8.32c-26.87,0-51.65,16.09-51.84,45.41v44.47
				c0.19,30.46,21.57,45.79,44.65,45.79c26.3,0,34.25-15.71,36.33-20.44l-1.33,11.55v8.89c0,19.68-10.6,34.81-30.47,34.81
				c-7.38,0-21.95-0.94-28.76-11.54l-1.32-0.56l-3.97,1.89l-0.57,1.51c7.57,17.22,21.38,24.79,35.19,24.79
				c24.41,0,50.9-10.97,50.9-56.01v-125.64L2062.53,1030.27z M2042.85,1137.56c-3.59,1.89-8.89,5.87-26.11,5.87
				c-15.51,0-32.35-7.95-32.35-30.46v-36.52c0-20.05,15.33-30.84,31.41-30.84c17.78,0,27.06,9.46,27.06,27.82V1137.56z"/>
			<path class="st29" d="M1219.62,1162.1h46.39c7.19,17.41,24.78,26.67,46.73,26.67c21.76,0,39.36-9.27,46.73-26.67l4.62,0.03
				l-0.01,0.05l16.62,0.06l16.96,0.11l0.02-0.05l15.08,0.05l17.78-4.16l1.33-1.52l-6.43-23.09l-0.18-175.96l-1.33-1.14l-17.22,4.55
				l-1.13,0.37l-1.14,1.14v171.05l2.08,7.95l-43.45-0.25v-35.39c0-29.52-21.57-45.41-50.33-45.41c-28.76,0-50.33,15.89-50.33,45.41
				v35.39h-42.67v-109.69l-1.33-1.32L1201,1035c0,0-14.57-8.32-30.08-8.32c-26.87,0-51.65,16.09-51.84,45.41v44.47
				c0.19,30.46,21.57,45.79,44.65,45.79c26.3,0,34.25-15.71,36.33-20.44l-1.33,11.55v8.89c0,19.68-10.6,34.81-30.47,34.81
				c-7.38,0-21.95-0.94-28.76-11.54l-1.32-0.56l-3.97,1.89l-0.57,1.51c7.57,17.22,21.38,24.79,35.19,24.79
				C1192.34,1213.24,1217.76,1203.06,1219.62,1162.1z M1283.42,1110.07c0-20.24,10.41-30.65,29.33-30.65
				c18.35,0,29.32,10.41,29.32,30.65v28.95c0,20.06-10.97,30.84-29.32,30.84c-18.92,0-29.33-10.78-29.33-30.84V1110.07z
				 M1198.73,1137.56c-3.59,1.89-8.89,5.87-26.11,5.87c-15.51,0-32.35-7.95-32.35-30.46v-36.52c0-20.05,15.33-30.84,31.41-30.84
				c17.78,0,27.06,9.46,27.06,27.82V1137.56z"/>
			<path class="st29" d="M1487.49,1128.54V957.63l-1.83-1.2l-16.77,4.63l-1.09,0.28l-1.27,1.27v199.77
				C1485.89,1151.43,1487.49,1128.54,1487.49,1128.54z"/>
			<path class="st29" d="M2045.12,1401.89c0,0-14.57-8.14-30.08-8.14c-26.87,0-51.65,15.9-51.84,45.22v44.65
				c0.19,30.28,21.57,45.8,44.65,45.8c26.3,0,34.25-15.9,36.33-20.44l-1.33,11.54v8.9c0,19.67-10.6,34.81-30.47,34.81
				c-7.38,0-21.95-0.95-28.76-11.73l-1.32-0.57l-3.97,2.09l-0.57,1.52c7.57,17.21,21.38,24.78,35.19,24.78
				c24.41,0,50.9-11.16,50.9-56.19v-125.64l-1.33-1.32L2045.12,1401.89z M2042.85,1504.44c-3.59,2.08-8.89,6.06-26.11,6.06
				c-15.51,0-32.35-8.14-32.35-30.65v-36.33c0-20.25,15.33-30.85,31.41-30.85c17.78,0,27.06,9.46,27.06,27.62V1504.44z"/>
			<polygon class="st29" points="56.83,1338.86 56.83,1360.43 58.13,1361.7 79.69,1361.7 80.99,1360.43 80.99,1338.86 
				79.69,1337.57 58.13,1337.57 			"/>
			<polygon class="st29" points="20.98,1337.57 19.68,1338.86 19.68,1360.43 20.98,1361.7 42.52,1361.7 43.82,1360.43 
				43.82,1338.86 42.52,1337.57 			"/>
			<polygon class="st29" points="139.48,1183.53 139.48,1205.1 140.78,1206.38 162.35,1206.38 163.64,1205.1 163.64,1183.53 
				162.35,1182.24 140.78,1182.24 			"/>
			<polygon class="st29" points="102.34,1183.53 102.34,1205.1 103.63,1206.38 125.17,1206.38 126.47,1205.1 126.47,1183.53 
				125.17,1182.24 103.63,1182.24 			"/>
			<path class="st29" d="M383.82,1496.49c-2.84,0.94-5.87,1.7-8.7,2.46c-3.03,0.76-5.3,1.14-7,1.14h-29.71
				c-9.27,0-16.46-2.65-21.57-7.76c-4.92-5.11-7.38-12.86-7.38-22.89v-32.92c0-10.03,2.46-17.6,7.38-22.71
				c5.11-5.11,12.3-7.76,21.57-7.76c9.08,0,16.08,2.47,21.19,7.58c4.92,4.73,7.57,12.1,7.95,21.56l1.14,1.33h18.36l1.32-1.33v-2.84
				c0-7.19-1.32-13.81-3.78-19.3c-2.46-5.67-5.87-10.4-10.41-14c-4.35-3.79-9.65-6.62-15.89-8.7c-6.06-1.89-12.68-2.84-19.87-2.84
				c-7,0-13.62,0.94-19.87,2.84c-6.06,2.08-11.35,4.92-15.71,8.7c-4.54,3.59-7.95,8.32-10.4,14c-2.65,5.49-3.79,12.11-3.79,19.3
				v41.63c0,10.22,2.65,19.11,7.76,26.11h-67.93v-109.74l-1.33-1.14l-18.16,2.64l-1.52,1.52v106.72H98.2v-108.04l-1.32-1.32
				l-17.22,4.73c-3.03-1.33-5.87-2.65-9.08-3.79c-2.84-1.14-5.87-2.08-9.65-3.03c-3.59-0.76-7.38-1.13-11.17-1.13
				c-6.62,0-12.87,0.94-18.73,2.84c-5.68,2.08-10.6,4.92-14.76,8.7c-4.35,3.59-7.57,8.32-10.02,14c-2.46,5.49-3.79,12.11-3.79,19.3
				v44.09c0,15.14,3.98,26.49,11.54,34.06c7.57,7.57,17.03,11.35,28.57,11.35c6.43,0,12.11-0.76,16.46-2.46
				c4.35-1.52,7.95-3.41,10.59-5.87c2.84-2.08,4.73-4.35,6.25-6.62c1.33-2.27,2.27-3.97,2.65-5.29l-1.13,13.81v5.87h283.17
				c5.68,0,10.6-0.76,14.57-2.08c4.16-1.52,7.57-3.22,10.41-5.3c2.84-2.08,4.92-4.35,6.43-6.81c1.52-2.65,2.84-7.38,3.6-9.84
				l-0.95-4.35C390.83,1494.22,387.23,1495.55,383.82,1496.49z M77.39,1497.25c-1.33,0.38-3.03,0.94-5.3,1.52
				c-2.46,0.76-4.92,1.32-7.38,2.08c-2.65,0.56-5.29,1.14-7.57,1.7c-2.46,0.38-4.35,0.76-5.68,0.76c-3.97,0-7.57-0.56-10.97-1.7
				c-3.22-0.95-6.25-2.65-8.9-5.11c-2.46-2.46-4.54-5.49-6.05-9.46c-1.52-3.97-2.27-8.7-2.27-14.19v-36.14
				c0-10.02,2.46-17.59,7.57-22.7c5.11-5.3,11.73-7.95,19.87-7.95c17.79,0,26.68,9.28,26.68,27.62V1497.25z"/>
			<polygon class="st29" points="668.51,1337.32 667.24,1338.59 667.24,1360.14 668.51,1361.46 690.08,1361.46 691.35,1360.14 
				691.35,1338.59 690.08,1337.32 			"/>
			<polygon class="st29" points="727.18,1361.46 728.5,1360.14 728.5,1338.59 727.18,1337.32 705.63,1337.32 704.31,1338.59 
				704.31,1360.14 705.63,1361.46 			"/>
			<polygon class="st29" points="427.83,1019.56 429.1,1018.24 429.1,996.7 427.83,995.43 406.26,995.43 404.99,996.7 
				404.99,1018.24 406.26,1019.56 			"/>
			<polygon class="st29" points="442.06,996.7 442.06,1018.24 443.38,1019.56 464.93,1019.56 466.25,1018.24 466.25,996.7 
				464.93,995.43 443.38,995.43 			"/>
			<polygon class="st29" points="446.39,980.57 447.71,979.25 447.71,957.71 446.39,956.44 424.85,956.44 423.52,957.71 
				423.52,979.25 424.85,980.57 			"/>
			<polygon class="st29" points="804.68,1554.41 803.36,1555.71 803.36,1577.23 804.68,1578.55 826.27,1578.55 827.54,1577.23 
				827.54,1555.71 826.27,1554.41 			"/>
			<path class="st29" d="M871.43,1432.54c0-7.19-1.14-13.63-3.59-19.3c-2.65-5.49-6.06-10.22-10.41-14.01
				c-4.54-3.78-9.84-6.62-15.9-8.51c-6.24-2.09-12.87-3.03-19.86-3.03h-19.11c-5.87,0-10.98,0.76-15.14,2.08
				c-4.16,1.32-7.57,3.22-10.41,5.11c-2.84,2.09-5.3,4.35-7,7c-1.7,2.46-2.84,4.91-3.6,7.38l1.14,4.35c3.78-1.33,7.19-2.46,10.6-3.6
				c2.84-0.75,5.87-1.7,8.7-2.46c2.84-0.76,5.3-1.13,7.19-1.13h27.62c9.27,0,16.46,2.46,21.57,7.57c4.92,5.11,7.57,12.68,7.57,22.89
				v62.44l0.18,1.14H708.14v-109.93l-1.14-0.94l-18.16,2.46l-1.33,1.7v106.72h-92.15v-35.38c0-29.52-21.38-45.41-50.14-45.41
				c-28.95,0-50.33,15.89-50.33,45.41v35.38h-32.92c-8.7-0.18-12.87-2.84-17.98-7.95c-5.11-5.11-7.57-12.68-7.57-22.71v-153.25
				l-1.33-1.15l-18.16,2.65l-1.33,1.52v156.86c0,7.19,1.14,13.63,3.79,19.3c2.46,5.67,5.86,10.4,10.4,14.01
				c4.35,3.78,9.65,6.61,15.71,8.7c6.25,1.88,9.84,2.84,17.03,2.84h35.95c7.19,17.41,24.79,26.67,46.73,26.67
				c21.76,0,39.36-9.27,46.55-26.67h269.25l15.71-2.27l1.33-1.52l-6.62-22.89V1432.54z M574.55,1498.19
				c0,20.06-11.17,30.84-29.33,30.84c-18.92,0-29.33-10.78-29.33-30.84v-28.95c0-20.24,10.41-30.65,29.33-30.65
				c18.16,0,29.33,10.41,29.33,30.65V1498.19z"/>
			<path class="st29" d="M1007.65,1318.01l-1.27,1.55v149.92c0,10.05-2.55,17.67-7.67,22.86c-5.12,5.19-12.28,7.76-21.43,7.76h-8.78
				l-2.39-8.04v-175.61l-1.32-1.04l-18.14,2.59l-1.3,1.55v179.51l0.49,1.04h-19.85c-1.9,0-4.26-0.37-7.16-1.16
				c-2.85-0.76-5.74-1.6-8.66-2.46c-3.31-1.07-6.86-2.25-10.68-3.64l-1.02,4.38c0.67,2.46,1.85,7.25,3.52,9.66
				c1.64,2.43,3.84,4.66,6.63,6.76c2.76,2.06,6.14,3.8,10.22,5.19c4.08,1.37,8.87,2.18,14.43,2.34h44.01c7.11,0,13.74-1,19.88-2.99
				c6.14-1.99,11.44-4.84,15.82-8.59c4.45-3.71,7.88-8.39,10.42-14.02c2.48-5.61,3.75-12.09,3.75-19.34v-159.79l-1.32-1.04
				L1007.65,1318.01z"/>
			<polygon class="st29" points="1069.63,1318.01 1068.35,1319.56 1068.35,1517.53 1069.4,1518.8 1087.84,1518.8 1089.13,1517.53 
				1089.13,1316.46 1087.84,1315.42 			"/>
			<polygon class="st29" points="1188.65,1338.86 1188.65,1360.43 1189.97,1361.7 1211.51,1361.7 1212.79,1360.43 1212.79,1338.86 
				1211.51,1337.57 1189.97,1337.57 			"/>
			<polygon class="st29" points="1225.77,1338.86 1225.77,1360.43 1227.09,1361.7 1248.61,1361.7 1249.93,1360.43 1249.93,1338.86 
				1248.61,1337.57 1227.09,1337.57 			"/>
			<polygon class="st29" points="1365.11,1554.41 1363.84,1555.71 1363.84,1577.23 1365.11,1578.55 1386.65,1578.55 1388,1577.23 
				1388,1555.71 1386.65,1554.41 			"/>
			<polygon class="st29" points="1402.26,1554.41 1400.94,1555.71 1400.94,1577.23 1402.26,1578.55 1423.85,1578.55 1425.1,1577.23 
				1425.1,1555.71 1423.85,1554.41 			"/>
			<polygon class="st29" points="188.66,1554.41 187.36,1555.71 187.36,1577.23 188.66,1578.55 210.2,1578.55 211.5,1577.23 
				211.5,1555.71 210.2,1554.41 			"/>
			<polygon class="st29" points="225.76,1554.41 224.49,1555.71 224.49,1577.23 225.76,1578.55 247.3,1578.55 248.6,1577.23 
				248.6,1555.71 247.3,1554.41 			"/>
			<polygon class="st29" points="1670.91,1338.86 1670.91,1360.43 1672.23,1361.7 1693.84,1361.7 1695.07,1360.43 1695.07,1338.86 
				1693.84,1337.57 1672.23,1337.57 			"/>
			<polygon class="st29" points="1734.39,1338.59 1734.39,1360.14 1735.64,1361.46 1757.18,1361.46 1758.5,1360.14 1758.5,1338.59 
				1757.18,1337.32 1735.64,1337.32 			"/>
			<polygon class="st29" points="1794.33,1361.46 1795.65,1360.14 1795.65,1338.59 1794.33,1337.32 1772.78,1337.32 
				1771.49,1338.59 1771.49,1360.14 1772.78,1361.46 			"/>
			<path class="st29" d="M1900.85,1320.02l-1.09,0.28l-1.25,1.27v199.77c19.41-10.98,20.96-33.82,20.96-33.82v-170.93l-1.85-1.18
				L1900.85,1320.02z"/>
			<path class="st29" d="M1857.24,1316.56l-1.33-1.15l-17.22,4.55l-1.14,0.38l-1.13,1.32v170.86l2.27,7.95h-63.38v-109.93
				l-1.14-1.14l-18.36,2.65l-1.13,1.52v106.9h-61.3v-109.93l-1.33-1.14l-18.16,2.65l-1.33,1.52v106.9h-106.22v-35.38
				c0-29.52-21.57-45.41-50.33-45.41c-28.76,0-50.33,15.89-50.33,45.41v35.38h-60.74v-109.93l-1.32-0.94l-18.17,2.46l-1.32,1.7
				v106.72h-117.07v-108.04l-1.33-1.33l-17.03,4.55c-3.03-1.32-6.05-2.65-9.08-3.79c-2.84-1.13-6.05-2.08-9.65-2.84
				c-3.59-0.94-7.38-1.32-11.16-1.32c-6.81,0-13.06,0.94-18.73,3.03c-5.68,1.88-10.6,4.73-14.95,8.51
				c-4.35,3.79-7.57,8.32-10.03,14.01c-2.46,5.67-3.59,12.11-3.59,19.3v44.27c0,14.95,3.78,26.3,11.35,33.87
				c7.76,7.76,17.22,11.54,28.76,11.54c6.43,0,11.92-0.76,16.46-2.46c4.35-1.7,7.95-3.59,10.6-5.87c2.65-2.27,4.73-4.55,6.05-6.81
				c1.33-2.08,2.27-3.79,2.84-4.92l-1.33,11.17v7.95h223.03c7.19,17.41,24.78,26.67,46.73,26.67c21.76,0,39.36-9.27,46.73-26.67h282
				l17.78-4.17l1.33-1.52l-6.44-23.08L1857.24,1316.56z M1246.45,1497.25c-1.33,0.38-3.03,0.94-5.49,1.52
				c-2.27,0.76-4.73,1.32-7.38,2.08c-2.65,0.56-5.11,1.14-7.57,1.7c-2.46,0.38-4.35,0.76-5.68,0.76c-3.78,0-7.38-0.56-10.78-1.7
				c-3.41-0.95-6.43-2.65-8.9-5.11c-2.65-2.46-4.73-5.49-6.24-9.46c-1.33-3.97-2.08-8.7-2.08-14.19v-36.14
				c0-10.02,2.46-17.59,7.57-22.7c4.92-5.3,11.54-7.95,19.67-7.95c17.79,0,26.87,9.28,26.87,27.62V1497.25z M1545.34,1498.19
				c0,20.06-10.97,30.84-29.32,30.84c-18.92,0-29.33-10.78-29.33-30.84v-28.95c0-20.24,10.41-30.65,29.33-30.65
				c18.35,0,29.32,10.41,29.32,30.65V1498.19z"/>
			<path class="st29" d="M847.79,1162.04v0.04h74.99l17.36-4.18l1.28-1.47l-6.34-22.38v-59.76c0-28.57-20.14-44.11-46.35-44.11
				h-21.11c-28.3,0-33.9,21.26-33.9,21.26l0.77,3.29l1.31,0.7c3.02-1.74,13.34-6.84,28.99-6.84h23.15
				c15.73,0,26.67,10.4,26.67,29.96v55.51l2.2,7.61h-66.76c-17.01,0-33.25-4.02-36.84-5.88l-1.74,3.94
				C813.5,1144.29,822.82,1161.57,847.79,1162.04z"/>
			<polygon class="st29" points="578.5,1190.05 578.5,1211.59 579.8,1212.91 601.34,1212.91 602.66,1211.59 602.66,1190.05 
				601.34,1188.77 579.8,1188.77 			"/>
			<path class="st29" d="M748.19,1128.55V957.62l-1.85-1.18l-16.77,4.61l-1.09,0.28l-1.25,1.27v199.77
				C746.64,1151.39,748.19,1128.55,748.19,1128.55z"/>
			<path class="st29" d="M441.62,1143.68c2.8,4.98,12.47,18.4,36.8,18.4c14.34,0,26.2-6.23,32.75-18.72
				c4.05,6.87,13.72,18.72,34.93,18.72h0.01l-0.01,0.23h127.37l17.78-4.17l1.33-1.52l-6.43-23.08l-0.19-175.96l-1.33-1.15
				l-17.22,4.55l-1.14,0.38l-1.13,1.32v170.86l2.27,7.95h-63.38v-109.93l-1.14-1.14l-18.36,2.65l-1.13,1.52v106.9l-36.06,0.62
				c-13.72,0-27.45-2.8-33.37-4.98c1.87-5.31,2.81-11.54,2.81-18.41v-67.35h-0.62l-1.87-1.25l-15.91,4.37l-1.25,0.3l-0.62,0.62
				v59.25c0,21.52-12.16,29.31-26.5,29.31c-5.61,0-20.28-4.05-26.2-5.6c1.56-5.31,2.81-10.92,2.81-17.79v-69.55l-1.56-1.25
				l-16.22,4.37l-1.25,0.32l-0.93,1.25h-0.32v58.93c0,21.52-9.97,29.31-24.32,29.31c-5.31,0-20.59-4.37-25.58-5.6v-87.33l-1.56-1.25
				l-16.22,4.37l-0.94,0.32l-1.24,1.25v77.33l-2.5,9.05h-86.89v-110.69l-1.27-1.32l-17.28,4.73l-2.27,0.65v126.85
				c0,19.69-10.73,34.82-30.48,34.82c-7.46,0-22.1-1.02-28.89-11.68l-1.32-0.49l-3.91,1.95l-0.58,1.48
				c7.64,17.26,21.5,24.83,35.19,24.83c23.37,0,48.79-10.26,50.7-51.17h99.8l1.25-0.93l7.17-19.34c0.94,3.43,8.42,20.27,35.25,20.27
				C424.78,1162.07,435.69,1155.85,441.62,1143.68z"/>
			<polygon class="st29" points="75.2,1002.24 76.5,1000.97 76.5,979.4 75.2,978.1 53.63,978.1 52.34,979.4 52.34,1000.97 
				53.63,1002.24 			"/>
			<polygon class="st29" points="38.03,1002.24 39.33,1000.97 39.33,979.4 38.03,978.1 16.49,978.1 15.19,979.4 15.19,1000.97 
				16.49,1002.24 			"/>
			<path class="st29" d="M42.57,1162.38c6.43,0,12.11-0.76,16.46-2.46c4.35-1.52,7.95-3.41,10.59-5.87
				c2.84-2.08,4.73-4.35,6.25-6.62c1.33-2.27,2.27-3.97,2.65-5.29l-1.13,13.81v5.87h101.46l0.08,0.25l17.8-4.2l0.97-1.63
				l-6.47-22.64l0.32-101.92l-1.62-1.3l-16.83,4.52l-1.3,0.33l-1.3,1.3v97.07l2.05,7.02H98.2v-108.04l-1.32-1.32L79.65,1036
				c-3.03-1.33-5.87-2.65-9.08-3.79c-2.84-1.14-5.87-2.08-9.65-3.03c-3.59-0.76-7.38-1.13-11.17-1.13c-6.62,0-12.87,0.94-18.73,2.84
				c-5.68,2.08-10.6,4.92-14.76,8.7c-4.35,3.59-7.57,8.32-10.02,14c-2.46,5.49-3.79,12.11-3.79,19.3v44.09
				c0,15.14,3.98,26.49,11.54,34.06C21.57,1158.6,31.03,1162.38,42.57,1162.38z M23.27,1077.24c0-10.02,2.46-17.59,7.57-22.7
				c5.11-5.3,11.73-7.95,19.87-7.95c17.79,0,26.68,9.28,26.68,27.62v63.58c-1.33,0.38-3.03,0.94-5.3,1.52
				c-2.46,0.76-4.92,1.32-7.38,2.08c-2.65,0.56-5.29,1.14-7.57,1.7c-2.46,0.38-4.35,0.76-5.68,0.76c-3.97,0-7.57-0.56-10.97-1.7
				c-3.22-0.95-6.25-2.65-8.9-5.11c-2.46-2.46-4.54-5.49-6.05-9.46c-1.52-3.97-2.27-8.7-2.27-14.19V1077.24z"/>
		</g>
	</g>
	<g>
		<path class="st30" d="M1998.62,382.8c-0.92,22.79-1.57,46.14-1.57,69.53c0,171.71,25.05,328.99,66.62,451.01
			c41.58-122.02,66.62-279.3,66.62-451.01c0-23.32-0.51-46.36-1.4-69.11c-0.06-0.08-0.11-0.16-0.15-0.25
			c-3.69-92.76-14.58-180.31-31.51-258.92c0,0-0.02,0.03-0.02,0.02c-0.19-0.87-0.46-2.34-0.87-3.87c0.02-0.02-0.03,0.02,0,0
			c-9.26-42.4-20.2-82.26-32.68-118.86c-12.47,36.62-23.41,76.49-32.71,118.91c-0.01,0-0.01-0.02-0.03-0.02
			c-0.37,1.68-0.7,3.17-0.85,3.88C2013.19,202.66,2002.32,290.12,1998.62,382.8z"/>
		<path class="st31" d="M2063.63,158.22c-160.41,0-332.22,62.74-426.99,148.41c124.04-10.75,269.3-23.66,426.96-25.96
			c157.66-2.3,302.98,15.21,427.02,25.96C2395.85,220.96,2224.03,158.22,2063.63,158.22"/>
		<g class="st32">
			<path class="st29" d="M1730.99,147.75c124.11,34.21,258.44,91.78,400.43,168.1c141.72,76.77,262.08,168.81,366.13,260.05
				c-35.23-127.55-142.89-276.33-306.14-363.95C2029.06,124.18,1854.63,110.99,1730.99,147.75z"/>
		</g>
		<g class="st33">
			<path class="st29" d="M2396.27,147.75c-124.11,34.21-258.45,91.78-400.43,168.1c-141.72,76.77-262.1,168.81-366.13,260.05
				c35.23-127.55,142.88-276.33,306.12-363.95C2098.2,124.18,2272.62,110.99,2396.27,147.75z"/>
		</g>
		<path class="st34" d="M2329.41,816.82c-31.56-117.88-128.7-317.98-201.23-434.77c-72.53-116.8-165.36-259.91-255.86-338.21
			c123.94,35.27,276.92,140.61,370.31,301.05C2337.13,505.48,2349.59,686.32,2329.41,816.82z"/>
		<path class="st34" d="M1797.84,816.82c31.54-117.88,128.7-317.98,201.23-434.77c72.53-116.8,165.37-259.91,255.84-338.21
			c-123.93,35.27-276.93,140.61-370.31,301.05C1790.12,505.48,1777.66,686.32,1797.84,816.82z"/>
	</g>
</g>
</svg>
