<?xml version="1.0" encoding="utf-8"?>
<!-- Generator: Adobe Illustrator 24.0.3, SVG Export Plug-In . SVG Version: 6.00 Build 0)  -->
<svg version="1.1" id="Layer_1" xmlns="http://www.w3.org/2000/svg" xmlns:xlink="http://www.w3.org/1999/xlink" x="0px" y="0px"
	 viewBox="0 0 2500 1833.92" style="enable-background:new 0 0 2500 1833.92;" xml:space="preserve">
<style type="text/css">
	.st0{fill:#B98B16;}
	.st1{fill:#F2B000;}
	.st2{fill:#886C41;}
	.st3{fill:#5A943B;}
	.st4{fill:#006F43;}
	.st5{fill:#BD7723;}
	.st6{fill:#6E4917;}
	.st7{fill:#6C3718;}
	.st8{fill:#5D7431;}
	.st9{fill:#545122;}
	.st10{fill:#35301E;}
	.st11{fill:#40522D;}
	.st12{fill:#313621;}
	.st13{fill:#322B1A;}
	.st14{fill:#1E271F;}
	.st15{fill:#0B582C;}
	.st16{fill:#194625;}
	.st17{fill:#182C1D;}
	.st18{fill:#182D1E;}
	.st19{fill:#19211B;}
	.st20{fill:#182E1F;}
	.st21{fill:#1C241D;}
	.st22{fill:#19221C;}
	.st23{fill:#1A211B;}
	.st24{fill:#1A4726;}
	.st25{fill:#1B3222;}
	.st26{fill:#1E261F;}
	.st27{fill:#1C1A17;}
	.st28{fill:#956E41;}
	.st29{fill:#FFFFFF;}
	.st30{opacity:0.95;fill:#FFFFFF;}
	.st31{opacity:0.6;fill:#FFFFFF;}
	.st32{opacity:0.45;}
	.st33{opacity:0.85;}
	.st34{opacity:0.7;fill:#FFFFFF;}
</style>
<g>
	<path class="st0" d="M2307.67,289.29c65.74,5.25,127.88,11.68,185.38,16.64c-54.32-49.12-134.01-90.65-222.27-117.23
		c-22.56,8.47-45.5,17.67-68.67,27.48C2240.53,237.59,2275.84,262.22,2307.67,289.29L2307.67,289.29z"/>
	<path class="st0" d="M1859.49,188.67c-88.26,26.6-167.88,68.13-222.29,117.28c57.04-4.97,118.46-10.35,183.48-14.97
		c32.38-27.69,68.3-52.95,107.48-74.79C1904.96,206.34,1882.17,197.17,1859.49,188.67L1859.49,188.67z"/>
	<path class="st1" d="M1959.55,133.74c-83.83-11.72-162.84-6.34-227.8,12.95c41.51,11.42,84.13,25.51,127.72,41.97
		c39.72-11.93,81.13-20.8,122.82-26.05C1974.69,152.8,1967.12,143.12,1959.55,133.74L1959.55,133.74z"/>
	<path class="st1" d="M2244.55,344.29c10.89,18.55,20.64,37.3,29.44,56.25c83.2,55.83,158.04,115.7,226.01,175.29
		c-26.3-95.13-92.74-201.94-192.33-286.55c-33.77-2.67-68.46-5.06-104.02-6.76C2218.21,302.08,2231.86,322.67,2244.55,344.29
		L2244.55,344.29z"/>
	<path class="st2" d="M2270.81,188.67c43.62-16.44,86.24-30.55,127.68-41.97c-64.93-19.29-143.9-24.72-227.75-12.95
		c-7.66,9.38-15.23,19.03-22.75,28.85C2189.61,167.87,2231.11,176.69,2270.81,188.67L2270.81,188.67z"/>
	<path class="st2" d="M1925,284.59c-35.68,1.83-70.5,4.02-104.32,6.41c-98.52,84.38-164.31,190.35-190.42,284.76
		c67.92-59.5,142.86-119.39,226.01-175.22c8.82-18.94,18.55-37.75,29.48-56.25C1897.89,323.44,1911.08,303.57,1925,284.59
		L1925,284.59z"/>
	<path class="st3" d="M2133.11,315.16c-2.37-1.25-4.69-2.41-7.03-3.71c1.9,23.28,3.39,46.91,4.32,70.99
		c72.64,117.16,169.53,316.94,201.12,434.77c17.9-115.7,10.1-270.9-57.55-416.64C2229.49,370.73,2182.63,341.94,2133.11,315.16
		L2133.11,315.16z"/>
	<path class="st3" d="M2031.55,123c0.14-0.72,0.46-2.2,0.79-3.88v0.05l0.05-0.05c-53.83-36.28-108.69-62.26-158.94-76.56
		c28.67,24.84,57.62,56.22,86.05,91.18c22.15,3.09,44.52,7.4,67.2,12.98C2028.28,138.74,2029.83,130.84,2031.55,123L2031.55,123z"/>
	<path class="st3" d="M2097.84,119.15c0.42,1.51,0.77,2.9,0.97,3.81c1.69,7.82,3.3,15.79,4.78,23.77c22.68-5.6,45.06-9.89,67.18-13
		c28.44-34.94,57.36-66.32,86.12-91.14c-50.26,14.28-105.16,40.21-158.97,76.37v0.16l-0.05,0.02H2097.84z"/>
	<path class="st3" d="M1997.18,315.16c-49.47,26.79-96.38,55.57-140.98,85.4c-67.53,145.74-75.33,300.94-57.39,416.64
		c31.55-117.9,128.58-317.77,201.22-434.98c0.95-23.98,2.41-47.54,4.27-70.83C2001.94,312.65,1999.6,313.9,1997.18,315.16
		L1997.18,315.16z"/>
	<path class="st4" d="M2097.93,118.99c-9.24-42.43-20.17-82.36-32.71-118.99c-12.53,36.63-23.54,76.58-32.75,119.04
		c10.91,7.41,21.84,15.18,32.64,23.38C2076.06,134.2,2086.92,126.38,2097.93,118.99L2097.93,118.99z"/>
	<path class="st4" d="M2065.1,280.03c-22.75,34.54-44.48,69.04-64.65,101.51c-0.21,0.21-0.32,0.49-0.46,0.7v0.05
		c-0.95,22.82-1.51,46.2-1.51,69.64c0,172.11,25.05,329.68,66.74,451.97c41.65-122.29,66.72-279.86,66.72-451.97
		c0-23.38-0.51-46.45-1.37-69.27c0,0-0.09-0.12-0.16-0.21c-0.14-0.33-0.37-0.63-0.6-0.91
		C2109.65,349.07,2087.9,314.57,2065.1,280.03L2065.1,280.03z"/>
	<path class="st5" d="M1937.02,211.03c19.92-10.72,39.9-20.29,60.01-28.9c-4.88-6.57-9.84-13.04-14.76-19.52
		c-41.67,5.27-83.06,14.11-122.78,26.07c22.68,8.52,45.48,17.67,68.67,27.48C1931.12,214.52,1934.03,212.68,1937.02,211.03
		L1937.02,211.03z"/>
	<path class="st5" d="M2163.44,233.07c13.97,15.62,27.44,32.15,40.28,49.42c35.49,1.72,70.22,4.08,103.91,6.8
		c-31.78-27.07-67.09-51.77-105.46-73.15C2189.33,221.58,2176.42,227.27,2163.44,233.07L2163.44,233.07z"/>
	<path class="st6" d="M2133.22,182.19c20.1,8.52,40.14,18.13,59.96,28.85c3,1.6,5.94,3.44,8.98,5.13
		c23.07-9.82,46.06-18.99,68.64-27.51c-39.69-11.93-81.15-20.85-122.78-26.02C2143.09,169.05,2138.15,175.57,2133.22,182.19
		L2133.22,182.19z"/>
	<path class="st6" d="M1966.88,233.07c-12.95-5.8-25.88-11.54-38.72-16.92c-39.18,21.87-75.1,47.15-107.48,74.84
		c33.87-2.37,68.64-4.57,104.32-6.45C1938.35,266.54,1952.32,249.34,1966.88,233.07L1966.88,233.07z"/>
	<path class="st7" d="M2005.44,193.48c-2.81-3.83-5.62-7.57-8.38-11.28c-20.15,8.54-40.16,18.11-60.03,28.81
		c-2.99,1.67-5.9,3.51-8.87,5.2c12.84,5.39,25.72,11.07,38.72,16.85C1979.32,219.13,1992.2,206.03,2005.44,193.48L2005.44,193.48z"
		/>
	<path class="st7" d="M2163.44,233.07c12.98-5.8,25.88-11.49,38.72-16.92c-3.04-1.63-5.99-3.46-8.98-5.11
		c-19.8-10.75-39.83-20.31-59.96-28.86c-2.83,3.74-5.5,7.54-8.31,11.31C2138.1,206.03,2151,219.16,2163.44,233.07L2163.44,233.07z"
		/>
	<path class="st8" d="M2024.48,158.62c0.7-3.95,1.48-7.94,2.27-11.86c-22.68-5.57-45.13-9.89-67.2-13.02
		c7.57,9.38,15.2,19.08,22.73,28.88C1996.32,160.83,2010.39,159.55,2024.48,158.62L2024.48,158.62z"/>
	<path class="st8" d="M2203.66,282.49c-26.39-1.25-53.18-2.2-80.44-2.55c1,10.42,2,20.92,2.85,31.52c2.34,1.21,4.62,2.46,7.03,3.71
		c49.51,26.81,96.34,55.5,140.86,85.43c-8.8-18.94-18.55-37.77-29.41-56.34C2231.91,322.65,2218.21,302.13,2203.66,282.49
		L2203.66,282.49z"/>
	<path class="st9" d="M2123.23,279.93c27.3,0.37,54.11,1.25,80.43,2.55c-12.84-17.22-26.25-33.78-40.28-49.42
		c-14.37,6.41-28.65,13.02-43.15,19.87C2121.28,261.87,2122.32,270.8,2123.23,279.93L2123.23,279.93z"/>
	<path class="st9" d="M2024.48,158.62c-14.09,0.93-28.16,2.2-42.2,3.99c4.92,6.48,9.91,12.93,14.76,19.52
		c8.36-3.53,16.69-6.71,25-9.94C2022.85,167.7,2023.62,163.13,2024.48,158.62L2024.48,158.62z"/>
	<path class="st10" d="M2020.76,179.23c0.46-2.37,0.91-4.64,1.28-7.01c-8.31,3.18-16.64,6.43-24.98,9.91
		c2.81,3.78,5.59,7.54,8.38,11.35C2010.48,188.63,2015.63,183.92,2020.76,179.23L2020.76,179.23z"/>
	<path class="st10" d="M2124.9,193.48c-3.57,4.94-7.08,9.89-10.65,14.86c2.18,14.65,4.18,29.53,5.99,44.64
		c14.46-6.89,28.83-13.56,43.2-19.92C2150.93,219.17,2138.09,206.03,2124.9,193.48L2124.9,193.48z"/>
	<path class="st11" d="M2004.3,311.39c0.77-10.14,1.72-20.17,2.76-30.2c-27.83,0.95-55.22,2.04-82.11,3.39
		c-13.93,18.99-27.07,38.81-39.21,59.71c-10.93,18.52-20.68,37.3-29.55,56.27c44.59-29.83,91.51-58.57,140.98-85.4
		C1999.59,313.88,2001.93,312.65,2004.3,311.39L2004.3,311.39z"/>
	<path class="st11" d="M2105.95,158.67c13.98,0.88,28.02,2.18,42.04,3.95c7.52-9.77,15.09-19.52,22.75-28.85
		c-22.12,3.11-44.48,7.38-67.11,12.98C2104.47,150.66,2105.19,154.65,2105.95,158.67L2105.95,158.67z"/>
	<path class="st12" d="M1966.88,233.07c-14.56,16.27-28.53,33.47-41.88,51.47c26.88-1.3,54.27-2.41,82.01-3.34
		c1-9.42,2.04-18.85,3.18-28.2C1995.64,246.11,1981.22,239.5,1966.88,233.07L1966.88,233.07z"/>
	<path class="st12" d="M2133.22,182.19c4.92-6.62,9.87-13.14,14.81-19.55c-14.07-1.79-28.11-3.09-42.09-3.97
		c0.81,4.46,1.6,9.1,2.41,13.56C2116.65,175.41,2124.91,178.68,2133.22,182.19L2133.22,182.19z"/>
	<path class="st13" d="M2109.65,179.34c5.11,4.67,10.21,9.38,15.25,14.14c2.76-3.76,5.5-7.57,8.31-11.28
		c-8.26-3.57-16.6-6.78-24.86-9.98C2108.77,174.65,2109.21,176.95,2109.65,179.34L2109.65,179.34z"/>
	<path class="st13" d="M2016.14,208.43c-3.55-5.01-7.13-9.98-10.7-14.95c-13.19,12.56-26.12,25.7-38.56,39.58
		c14.35,6.41,28.74,13.07,43.32,19.89C2011.96,237.91,2013.95,223.08,2016.14,208.43L2016.14,208.43z"/>
	<path class="st14" d="M2124.9,193.48c-5.04-4.83-10.14-9.47-15.25-14.14c1.6,9.56,3.16,19.2,4.6,28.99
		C2117.82,203.36,2121.33,198.42,2124.9,193.48L2124.9,193.48z"/>
	<path class="st14" d="M2005.44,193.48c3.57,4.97,7.15,9.93,10.7,14.95c1.44-9.84,2.97-19.57,4.62-29.2
		C2015.58,183.91,2010.47,188.65,2005.44,193.48L2005.44,193.48z"/>
	<path class="st15" d="M2032.39,119.13c-0.4,1.67-0.7,3.16-0.84,3.88c-1.72,7.82-3.27,15.76-4.81,23.73
		c8.15,2.02,16.32,4.23,24.56,6.57c4.64-3.69,9.19-7.34,13.84-10.86c-10.89-8.24-21.75-15.99-32.75-23.38v0.09V119.13z"/>
	<path class="st15" d="M2065.28,279.93h-0.07l-0.11,0.12c22.77,34.54,44.62,68.99,64.7,101.49c0.23,0.3,0.46,0.63,0.6,0.91
		c-0.93-24.05-2.44-47.73-4.32-70.99C2105.63,300.56,2085.41,290.05,2065.28,279.93L2065.28,279.93z"/>
	<path class="st16" d="M2051.32,153.27c-8.22-2.32-16.37-4.53-24.63-6.55c-0.72,3.99-1.51,7.96-2.2,11.89
		c7.15-0.4,14.32-0.72,21.5-0.98C2047.79,156.17,2049.51,154.71,2051.32,153.27L2051.32,153.27z"/>
	<path class="st16" d="M2065.28,279.93c20.13,10.12,40.34,20.64,60.8,31.53c-0.88-10.61-1.81-21.08-2.85-31.53
		C2104.14,279.6,2084.78,279.6,2065.28,279.93L2065.28,279.93z"/>
	<path class="st17" d="M2033.55,167.87c4.09-3.51,8.22-6.78,12.42-10.21c-7.15,0.21-14.32,0.6-21.5,1.02
		c-0.91,4.46-1.63,8.98-2.44,13.53C2025.84,170.75,2029.74,169.26,2033.55,167.87L2033.55,167.87z"/>
	<path class="st18" d="M2123.23,279.93c-0.91-9.12-1.95-18.06-3-27c-18.2,8.61-36.45,17.5-54.85,26.84
		c-0.07,0.07-0.07,0.12-0.16,0.16h0.09C2084.78,279.6,2104.14,279.6,2123.23,279.93L2123.23,279.93z"/>
	<path class="st19" d="M2022.03,172.22c-0.42,2.34-0.86,4.64-1.23,7.01c4.23-3.76,8.45-7.68,12.74-11.35
		C2029.74,169.25,2025.84,170.76,2022.03,172.22L2022.03,172.22z"/>
	<path class="st19" d="M2065.37,279.77c18.36-9.33,36.65-18.25,54.81-26.84c-1.76-15.09-3.71-29.95-5.87-44.62
		C2097.48,231.72,2081.16,255.74,2065.37,279.77L2065.37,279.77z"/>
	<path class="st15" d="M2065.1,280.03c0,0,0-0.09-0.05-0.12h-0.05c-20.08,10.1-40.32,20.59-60.7,31.5
		c-1.86,23.26-3.37,46.84-4.32,70.82c0.14-0.21,0.26-0.49,0.46-0.7C2020.62,349.07,2042.35,314.57,2065.1,280.03L2065.1,280.03z"/>
	<path class="st15" d="M2078.98,153.3c8.24-2.37,16.43-4.57,24.63-6.55c-1.51-7.99-3.09-15.99-4.8-23.82
		c-0.19-0.81-0.51-2.25-0.98-3.74v-0.11l0.09-0.07c-10.98,7.38-21.94,15.18-32.82,23.4C2069.78,145.96,2074.4,149.63,2078.98,153.3
		L2078.98,153.3z"/>
	<path class="st20" d="M2004.3,311.39c20.38-10.86,40.62-21.4,60.7-31.46c-19.52,0.23-38.91,0.7-57.94,1.25
		C2006.02,291.22,2005.07,301.25,2004.3,311.39L2004.3,311.39z"/>
	<path class="st20" d="M2105.95,158.67c-0.77-4.02-1.48-8.01-2.32-11.93c-8.2,2.02-16.41,4.2-24.65,6.57
		c1.86,1.44,3.57,2.9,5.34,4.36C2091.54,157.9,2098.71,158.23,2105.95,158.67L2105.95,158.67z"/>
	<path class="st21" d="M2096.75,167.87c3.85,1.46,7.75,2.92,11.61,4.34c-0.81-4.43-1.58-9.08-2.41-13.53
		c-7.24-0.42-14.46-0.81-21.57-1.02C2088.44,161.09,2092.59,164.37,2096.75,167.87L2096.75,167.87z"/>
	<path class="st22" d="M2064.96,279.77c-18.43-9.31-36.68-18.22-54.76-26.77c-1.14,9.36-2.18,18.71-3.13,28.21
		c19.08-0.56,38.37-1.02,57.94-1.28l0.05-0.05L2064.96,279.77L2064.96,279.77z"/>
	<path class="st23" d="M2010.2,252.98c18.08,8.59,36.33,17.48,54.76,26.81c-15.81-24.03-32.13-47.96-48.77-71.34
		C2013.96,223.04,2011.96,237.94,2010.2,252.98L2010.2,252.98z"/>
	<path class="st23" d="M2108.36,172.25c-3.9-1.44-7.71-2.95-11.61-4.34c4.32,3.67,8.57,7.66,12.91,11.44
		C2109.17,177.01,2108.73,174.66,2108.36,172.25L2108.36,172.25z"/>
	<path class="st24" d="M2065.1,157.18h0.42c4.53-1.37,8.91-2.62,13.46-3.88c-4.6-3.74-9.22-7.38-13.88-10.89
		c-4.6,3.51-9.17,7.15-13.79,10.89c4.53,1.25,8.98,2.51,13.46,3.88H2065.1L2065.1,157.18z"/>
	<path class="st25" d="M2064.79,157.2c-4.53-1.42-8.96-2.62-13.51-3.92c-1.72,1.44-3.53,2.92-5.27,4.36
		C2052.2,157.44,2058.49,157.2,2064.79,157.2L2064.79,157.2z"/>
	<path class="st26" d="M2064.79,157.2c-6.29,0-12.58,0.23-18.78,0.44c-4.25,3.44-8.38,6.76-12.47,10.26
		c10.56-3.85,21.05-7.38,31.57-10.61L2064.79,157.2L2064.79,157.2z"/>
	<path class="st26" d="M2084.37,157.65c-1.81-1.46-3.57-2.9-5.39-4.34c-4.5,1.25-8.94,2.48-13.46,3.88
		C2071.79,157.18,2078.08,157.48,2084.37,157.65L2084.37,157.65z"/>
	<path class="st19" d="M2096.75,167.87c-4.16-3.51-8.31-6.78-12.37-10.21c-6.31-0.16-12.58-0.46-18.83-0.46
		c-0.19,0.02-0.32,0.09-0.39,0.12C2075.67,160.6,2086.23,164.04,2096.75,167.87L2096.75,167.87z"/>
	<path class="st27" d="M2109.65,179.34c-4.34-3.81-8.59-7.78-12.95-11.44c-10.47-3.85-21.03-7.43-31.59-10.72
		c-10.47,3.3-20.98,6.87-31.55,10.72c-4.32,3.67-8.57,7.54-12.79,11.33c-1.62,9.66-3.18,19.36-4.62,29.23
		c16.67,23.38,32.96,47.31,48.82,71.34l0.14,0.07l0.28-0.12c15.76-23.98,32.11-47.98,48.87-71.41
		C2112.81,198.54,2111.25,188.93,2109.65,179.34L2109.65,179.34z"/>
	<path class="st0" d="M2307.67,289.29c65.74,5.25,127.88,11.68,185.38,16.64c-54.32-49.12-134.01-90.65-222.27-117.23
		c-22.56,8.47-45.5,17.67-68.67,27.48C2240.53,237.59,2275.84,262.22,2307.67,289.29L2307.67,289.29z"/>
	<path class="st0" d="M1859.49,188.67c-88.26,26.6-167.88,68.13-222.29,117.28c57.04-4.97,118.46-10.35,183.48-14.97
		c32.38-27.69,68.3-52.95,107.48-74.79C1904.96,206.34,1882.17,197.17,1859.49,188.67L1859.49,188.67z"/>
	<path class="st1" d="M1959.55,133.74c-83.83-11.72-162.84-6.34-227.8,12.95c41.51,11.42,84.13,25.51,127.72,41.97
		c39.72-11.93,81.13-20.8,122.82-26.05C1974.69,152.8,1967.12,143.12,1959.55,133.74L1959.55,133.74z"/>
	<path class="st1" d="M2244.55,344.29c10.89,18.55,20.64,37.3,29.44,56.25c83.2,55.83,158.04,115.7,226.01,175.29
		c-26.3-95.13-92.74-201.94-192.33-286.55c-33.77-2.67-68.46-5.06-104.02-6.76C2218.21,302.08,2231.86,322.67,2244.55,344.29
		L2244.55,344.29z"/>
	<path class="st2" d="M2270.81,188.67c43.62-16.44,86.24-30.55,127.68-41.97c-64.93-19.29-143.9-24.72-227.75-12.95
		c-7.66,9.38-15.23,19.03-22.75,28.85C2189.61,167.87,2231.11,176.69,2270.81,188.67L2270.81,188.67z"/>
	<path class="st2" d="M1925,284.59c-35.68,1.83-70.5,4.02-104.32,6.41c-98.52,84.38-164.31,190.35-190.42,284.76
		c67.92-59.5,142.86-119.39,226.01-175.22c8.82-18.94,18.55-37.75,29.48-56.25C1897.89,323.44,1911.08,303.57,1925,284.59
		L1925,284.59z"/>
	<path class="st3" d="M2133.11,315.16c-2.37-1.25-4.69-2.41-7.03-3.71c1.9,23.28,3.39,46.91,4.32,70.99
		c72.64,117.16,169.53,316.94,201.12,434.77c17.9-115.7,10.1-270.9-57.55-416.64C2229.49,370.73,2182.63,341.94,2133.11,315.16
		L2133.11,315.16z"/>
	<path class="st3" d="M2031.55,123c0.14-0.72,0.46-2.2,0.79-3.88v0.05l0.05-0.05c-53.83-36.28-108.69-62.26-158.94-76.56
		c28.67,24.84,57.62,56.22,86.05,91.18c22.15,3.09,44.52,7.4,67.2,12.98C2028.28,138.74,2029.83,130.84,2031.55,123L2031.55,123z"/>
	<path class="st3" d="M2097.84,119.15c0.42,1.51,0.77,2.9,0.97,3.81c1.69,7.82,3.3,15.79,4.78,23.77c22.68-5.6,45.06-9.89,67.18-13
		c28.44-34.94,57.36-66.32,86.12-91.14c-50.26,14.28-105.16,40.21-158.97,76.37v0.16l-0.05,0.02H2097.84z"/>
	<path class="st3" d="M1997.18,315.16c-49.47,26.79-96.38,55.57-140.98,85.4c-67.53,145.74-75.33,300.94-57.39,416.64
		c31.55-117.9,128.58-317.77,201.22-434.98c0.95-23.98,2.41-47.54,4.27-70.83C2001.94,312.65,1999.6,313.9,1997.18,315.16
		L1997.18,315.16z"/>
	<path class="st4" d="M2097.93,118.99c-9.24-42.43-20.17-82.36-32.71-118.99c-12.53,36.63-23.54,76.58-32.75,119.04
		c10.91,7.41,21.84,15.18,32.64,23.38C2076.06,134.2,2086.92,126.38,2097.93,118.99L2097.93,118.99z"/>
	<path class="st4" d="M2065.1,280.03c-22.75,34.54-44.48,69.04-64.65,101.51c-0.21,0.21-0.32,0.49-0.46,0.7v0.05
		c-0.95,22.82-1.51,46.2-1.51,69.64c0,172.11,25.05,329.68,66.74,451.97c41.65-122.29,66.72-279.86,66.72-451.97
		c0-23.38-0.51-46.45-1.37-69.27c0,0-0.09-0.12-0.16-0.21c-0.14-0.33-0.37-0.63-0.6-0.91
		C2109.65,349.07,2087.9,314.57,2065.1,280.03L2065.1,280.03z"/>
	<path class="st5" d="M1937.02,211.03c19.92-10.72,39.9-20.29,60.01-28.9c-4.88-6.57-9.84-13.04-14.76-19.52
		c-41.67,5.27-83.06,14.11-122.78,26.07c22.68,8.52,45.48,17.67,68.67,27.48C1931.12,214.52,1934.03,212.68,1937.02,211.03
		L1937.02,211.03z"/>
	<path class="st5" d="M2163.44,233.07c13.97,15.62,27.44,32.15,40.28,49.42c35.49,1.72,70.22,4.08,103.91,6.8
		c-31.78-27.07-67.09-51.77-105.46-73.15C2189.33,221.58,2176.42,227.27,2163.44,233.07L2163.44,233.07z"/>
	<path class="st6" d="M2133.22,182.19c20.1,8.52,40.14,18.13,59.96,28.85c3,1.6,5.94,3.44,8.98,5.13
		c23.07-9.82,46.06-18.99,68.64-27.51c-39.69-11.93-81.15-20.85-122.78-26.02C2143.09,169.05,2138.15,175.57,2133.22,182.19
		L2133.22,182.19z"/>
	<path class="st6" d="M1966.88,233.07c-12.95-5.8-25.88-11.54-38.72-16.92c-39.18,21.87-75.1,47.15-107.48,74.84
		c33.87-2.37,68.64-4.57,104.32-6.45C1938.35,266.54,1952.32,249.34,1966.88,233.07L1966.88,233.07z"/>
	<path class="st7" d="M2005.44,193.48c-2.81-3.83-5.62-7.57-8.38-11.28c-20.15,8.54-40.16,18.11-60.03,28.81
		c-2.99,1.67-5.9,3.51-8.87,5.2c12.84,5.39,25.72,11.07,38.72,16.85C1979.32,219.13,1992.2,206.03,2005.44,193.48L2005.44,193.48z"
		/>
	<path class="st7" d="M2163.44,233.07c12.98-5.8,25.88-11.49,38.72-16.92c-3.04-1.63-5.99-3.46-8.98-5.11
		c-19.8-10.75-39.83-20.31-59.96-28.86c-2.83,3.74-5.5,7.54-8.31,11.31C2138.1,206.03,2151,219.16,2163.44,233.07L2163.44,233.07z"
		/>
	<path class="st8" d="M2024.48,158.62c0.7-3.95,1.48-7.94,2.27-11.86c-22.68-5.57-45.13-9.89-67.2-13.02
		c7.57,9.38,15.2,19.08,22.73,28.88C1996.32,160.83,2010.39,159.55,2024.48,158.62L2024.48,158.62z"/>
	<path class="st8" d="M2203.66,282.49c-26.39-1.25-53.18-2.2-80.44-2.55c1,10.42,2,20.92,2.85,31.52c2.34,1.21,4.62,2.46,7.03,3.71
		c49.51,26.81,96.34,55.5,140.86,85.43c-8.8-18.94-18.55-37.77-29.41-56.34C2231.91,322.65,2218.21,302.13,2203.66,282.49
		L2203.66,282.49z"/>
	<path class="st9" d="M2123.23,279.93c27.3,0.37,54.11,1.25,80.43,2.55c-12.84-17.22-26.25-33.78-40.28-49.42
		c-14.37,6.41-28.65,13.02-43.15,19.87C2121.28,261.87,2122.32,270.8,2123.23,279.93L2123.23,279.93z"/>
	<path class="st9" d="M2024.48,158.62c-14.09,0.93-28.16,2.2-42.2,3.99c4.92,6.48,9.91,12.93,14.76,19.52
		c8.36-3.53,16.69-6.71,25-9.94C2022.85,167.7,2023.62,163.13,2024.48,158.62L2024.48,158.62z"/>
	<path class="st10" d="M2020.76,179.23c0.46-2.37,0.91-4.64,1.28-7.01c-8.31,3.18-16.64,6.43-24.98,9.91
		c2.81,3.78,5.59,7.54,8.38,11.35C2010.48,188.63,2015.63,183.92,2020.76,179.23L2020.76,179.23z"/>
	<path class="st10" d="M2124.9,193.48c-3.57,4.94-7.08,9.89-10.65,14.86c2.18,14.65,4.18,29.53,5.99,44.64
		c14.46-6.89,28.83-13.56,43.2-19.92C2150.93,219.17,2138.09,206.03,2124.9,193.48L2124.9,193.48z"/>
	<path class="st11" d="M2004.3,311.39c0.77-10.14,1.72-20.17,2.76-30.2c-27.83,0.95-55.22,2.04-82.11,3.39
		c-13.93,18.99-27.07,38.81-39.21,59.71c-10.93,18.52-20.68,37.3-29.55,56.27c44.59-29.83,91.51-58.57,140.98-85.4
		C1999.59,313.88,2001.93,312.65,2004.3,311.39L2004.3,311.39z"/>
	<path class="st11" d="M2105.95,158.67c13.98,0.88,28.02,2.18,42.04,3.95c7.52-9.77,15.09-19.52,22.75-28.85
		c-22.12,3.11-44.48,7.38-67.11,12.98C2104.47,150.66,2105.19,154.65,2105.95,158.67L2105.95,158.67z"/>
	<path class="st12" d="M1966.88,233.07c-14.56,16.27-28.53,33.47-41.88,51.47c26.88-1.3,54.27-2.41,82.01-3.34
		c1-9.42,2.04-18.85,3.18-28.2C1995.64,246.11,1981.22,239.5,1966.88,233.07L1966.88,233.07z"/>
	<path class="st12" d="M2133.22,182.19c4.92-6.62,9.87-13.14,14.81-19.55c-14.07-1.79-28.11-3.09-42.09-3.97
		c0.81,4.46,1.6,9.1,2.41,13.56C2116.65,175.41,2124.91,178.68,2133.22,182.19L2133.22,182.19z"/>
	<path class="st13" d="M2109.65,179.34c5.11,4.67,10.21,9.38,15.25,14.14c2.76-3.76,5.5-7.57,8.31-11.28
		c-8.26-3.57-16.6-6.78-24.86-9.98C2108.77,174.65,2109.21,176.95,2109.65,179.34L2109.65,179.34z"/>
	<path class="st13" d="M2016.14,208.43c-3.55-5.01-7.13-9.98-10.7-14.95c-13.19,12.56-26.12,25.7-38.56,39.58
		c14.35,6.41,28.74,13.07,43.32,19.89C2011.96,237.91,2013.95,223.08,2016.14,208.43L2016.14,208.43z"/>
	<path class="st14" d="M2124.9,193.48c-5.04-4.83-10.14-9.47-15.25-14.14c1.6,9.56,3.16,19.2,4.6,28.99
		C2117.82,203.36,2121.33,198.42,2124.9,193.48L2124.9,193.48z"/>
	<path class="st14" d="M2005.44,193.48c3.57,4.97,7.15,9.93,10.7,14.95c1.44-9.84,2.97-19.57,4.62-29.2
		C2015.58,183.91,2010.47,188.65,2005.44,193.48L2005.44,193.48z"/>
	<path class="st15" d="M2032.39,119.13c-0.4,1.67-0.7,3.16-0.84,3.88c-1.72,7.82-3.27,15.76-4.81,23.73
		c8.15,2.02,16.32,4.23,24.56,6.57c4.64-3.69,9.19-7.34,13.84-10.86c-10.89-8.24-21.75-15.99-32.75-23.38v0.09V119.13z"/>
	<path class="st15" d="M2065.28,279.93h-0.07l-0.11,0.12c22.77,34.54,44.62,68.99,64.7,101.49c0.23,0.3,0.46,0.63,0.6,0.91
		c-0.93-24.05-2.44-47.73-4.32-70.99C2105.63,300.56,2085.41,290.05,2065.28,279.93L2065.28,279.93z"/>
	<path class="st16" d="M2051.32,153.27c-8.22-2.32-16.37-4.53-24.63-6.55c-0.72,3.99-1.51,7.96-2.2,11.89
		c7.15-0.4,14.32-0.72,21.5-0.98C2047.79,156.17,2049.51,154.71,2051.32,153.27L2051.32,153.27z"/>
	<path class="st16" d="M2065.28,279.93c20.13,10.12,40.34,20.64,60.8,31.53c-0.88-10.61-1.81-21.08-2.85-31.53
		C2104.14,279.6,2084.78,279.6,2065.28,279.93L2065.28,279.93z"/>
	<path class="st17" d="M2033.55,167.87c4.09-3.51,8.22-6.78,12.42-10.21c-7.15,0.21-14.32,0.6-21.5,1.02
		c-0.91,4.46-1.63,8.98-2.44,13.53C2025.84,170.75,2029.74,169.26,2033.55,167.87L2033.55,167.87z"/>
	<path class="st18" d="M2123.23,279.93c-0.91-9.12-1.95-18.06-3-27c-18.2,8.61-36.45,17.5-54.85,26.84
		c-0.07,0.07-0.07,0.12-0.16,0.16h0.09C2084.78,279.6,2104.14,279.6,2123.23,279.93L2123.23,279.93z"/>
	<path class="st19" d="M2022.03,172.22c-0.42,2.34-0.86,4.64-1.23,7.01c4.23-3.76,8.45-7.68,12.74-11.35
		C2029.74,169.25,2025.84,170.76,2022.03,172.22L2022.03,172.22z"/>
	<path class="st19" d="M2065.37,279.77c18.36-9.33,36.65-18.25,54.81-26.84c-1.76-15.09-3.71-29.95-5.87-44.62
		C2097.48,231.72,2081.16,255.74,2065.37,279.77L2065.37,279.77z"/>
	<path class="st15" d="M2065.1,280.03c0,0,0-0.09-0.05-0.12h-0.05c-20.08,10.1-40.32,20.59-60.7,31.5
		c-1.86,23.26-3.37,46.84-4.32,70.82c0.14-0.21,0.26-0.49,0.46-0.7C2020.62,349.07,2042.35,314.57,2065.1,280.03L2065.1,280.03z"/>
	<path class="st15" d="M2078.98,153.3c8.24-2.37,16.43-4.57,24.63-6.55c-1.51-7.99-3.09-15.99-4.8-23.82
		c-0.19-0.81-0.51-2.25-0.98-3.74v-0.11l0.09-0.07c-10.98,7.38-21.94,15.18-32.82,23.4C2069.78,145.96,2074.4,149.63,2078.98,153.3
		L2078.98,153.3z"/>
	<path class="st20" d="M2004.3,311.39c20.38-10.86,40.62-21.4,60.7-31.46c-19.52,0.23-38.91,0.7-57.94,1.25
		C2006.02,291.22,2005.07,301.25,2004.3,311.39L2004.3,311.39z"/>
	<path class="st20" d="M2105.95,158.67c-0.77-4.02-1.48-8.01-2.32-11.93c-8.2,2.02-16.41,4.2-24.65,6.57
		c1.86,1.44,3.57,2.9,5.34,4.36C2091.54,157.9,2098.71,158.23,2105.95,158.67L2105.95,158.67z"/>
	<path class="st21" d="M2096.75,167.87c3.85,1.46,7.75,2.92,11.61,4.34c-0.81-4.43-1.58-9.08-2.41-13.53
		c-7.24-0.42-14.46-0.81-21.57-1.02C2088.44,161.09,2092.59,164.37,2096.75,167.87L2096.75,167.87z"/>
	<path class="st22" d="M2064.96,279.77c-18.43-9.31-36.68-18.22-54.76-26.77c-1.14,9.36-2.18,18.71-3.13,28.21
		c19.08-0.56,38.37-1.02,57.94-1.28l0.05-0.05L2064.96,279.77L2064.96,279.77z"/>
	<path class="st23" d="M2010.2,252.98c18.08,8.59,36.33,17.48,54.76,26.81c-15.81-24.03-32.13-47.96-48.77-71.34
		C2013.96,223.04,2011.96,237.94,2010.2,252.98L2010.2,252.98z"/>
	<path class="st23" d="M2108.36,172.25c-3.9-1.44-7.71-2.95-11.61-4.34c4.32,3.67,8.57,7.66,12.91,11.44
		C2109.17,177.01,2108.73,174.66,2108.36,172.25L2108.36,172.25z"/>
	<path class="st24" d="M2065.1,157.18h0.42c4.53-1.37,8.91-2.62,13.46-3.88c-4.6-3.74-9.22-7.38-13.88-10.89
		c-4.6,3.51-9.17,7.15-13.79,10.89c4.53,1.25,8.98,2.51,13.46,3.88H2065.1L2065.1,157.18z"/>
	<path class="st25" d="M2064.79,157.2c-4.53-1.42-8.96-2.62-13.51-3.92c-1.72,1.44-3.53,2.92-5.27,4.36
		C2052.2,157.44,2058.49,157.2,2064.79,157.2L2064.79,157.2z"/>
	<path class="st26" d="M2064.79,157.2c-6.29,0-12.58,0.23-18.78,0.44c-4.25,3.44-8.38,6.76-12.47,10.26
		c10.56-3.85,21.05-7.38,31.57-10.61L2064.79,157.2L2064.79,157.2z"/>
	<path class="st26" d="M2084.37,157.65c-1.81-1.46-3.57-2.9-5.39-4.34c-4.5,1.25-8.94,2.48-13.46,3.88
		C2071.79,157.18,2078.08,157.48,2084.37,157.65L2084.37,157.65z"/>
	<path class="st19" d="M2096.75,167.87c-4.16-3.51-8.31-6.78-12.37-10.21c-6.31-0.16-12.58-0.46-18.83-0.46
		c-0.19,0.02-0.32,0.09-0.39,0.12C2075.67,160.6,2086.23,164.04,2096.75,167.87L2096.75,167.87z"/>
	<path class="st27" d="M2109.65,179.34c-4.34-3.81-8.59-7.78-12.95-11.44c-10.47-3.85-21.03-7.43-31.59-10.72
		c-10.47,3.3-20.98,6.87-31.55,10.72c-4.32,3.67-8.57,7.54-12.79,11.33c-1.62,9.66-3.18,19.36-4.62,29.23
		c16.67,23.38,32.96,47.31,48.82,71.34l0.14,0.07l0.28-0.12c15.76-23.98,32.11-47.98,48.87-71.41
		C2112.81,198.54,2111.25,188.93,2109.65,179.34L2109.65,179.34z"/>
	<polygon class="st28" points="963.57,1820.84 962.8,1821.63 962.8,1834.35 963.57,1835.1 976.27,1835.1 977.01,1834.35 
		977.01,1821.63 976.27,1820.84 	"/>
	<polygon class="st28" points="75.24,1820.84 74.52,1821.63 74.52,1834.35 75.24,1835.1 87.99,1835.1 88.73,1834.35 88.73,1821.63 
		87.99,1820.84 	"/>
	<polygon class="st28" points="940.08,1820.84 939.36,1821.63 939.36,1834.35 940.08,1835.1 952.83,1835.1 953.55,1834.35 
		953.55,1821.63 952.83,1820.84 	"/>
	<polygon class="st28" points="98.73,1820.84 97.98,1821.63 97.98,1834.35 98.73,1835.1 111.38,1835.1 112.17,1834.35 
		112.17,1821.63 111.38,1820.84 	"/>
	<polygon class="st28" points="1054.07,1820.84 1053.25,1821.63 1053.25,1834.35 1054.07,1835.1 1066.72,1835.1 1067.48,1834.35 
		1067.48,1821.63 1066.72,1820.84 	"/>
	<path class="st28" d="M1316.29,1685.01l-0.79-0.67l-10.1,2.69l-0.6,0.23l-0.74,0.67v98.05v1.76l1.32,4.6h-89.95
		c-2.14-1.42-3.99-3.76-3.99-6.08v-10.56v-21.22c0-11.82,6.59-18.11,16.06-18.11h13.86c9.45,0,15.6,3.13,17.46,4.2l0.84-0.44
		l0.44-1.97c0,0-3.34-12.74-20.41-12.74h-12.7c-15.76,0-27.74,9.31-27.74,26.42V1779c0,4.81,1.32,10.52,5.71,13.35h-64.05v-64.21
		l-0.79-0.72l-10.03,2.76l-1.39,0.37v74.07c0,11.47-6.17,20.29-17.73,20.29c-4.39,0-12.93-0.65-16.81-6.85l-0.84-0.23l-2.3,1.16
		l-0.32,0.86c4.46,10.05,15.55,14.46,23.58,14.46c13.65,0,25.35-5.97,26.51-29.74h168.23l10.38-2.51l0.72-0.91l-3.78-13.42
		L1316.29,1685.01z"/>
	<path class="st28" d="M1341.7,1687.04l-0.6,0.23l-0.72,0.67v116.63c11.35-6.36,12.19-19.73,12.19-19.73v-99.82l-1.02-0.7
		L1341.7,1687.04z"/>
	<path class="st28" d="M1083.71,1787.84v-59.73l-0.57-0.76l-10.24,2.65l-0.57,0.19l-0.76,0.76v56.88l1.14,4.55h-62.76
		c-9.1,0-16.68-3.6-16.68-16.68v-47.59l-0.76-0.76l-10.05,2.65l-0.76,0.19l-0.57,0.76v44.75c0,13.08-7.39,16.68-16.49,16.68H862.67
		c-8.91,0-16.49-3.6-16.49-16.68v-53.47l-0.76-0.76l-10.05,2.84c0,0-8.72-4.74-17.63-4.74c-15.74,0-30.15,9.3-30.34,26.36v25.97
		c0.19,17.83,12.52,26.74,25.98,26.74c15.54,0,20.48-9.1,21.61-11.94c2.85,11.94,11.57,17.82,22.37,17.82h112.39
		c7.01,0,13.08-2.46,17.44-7.58c4.17,5.12,10.43,7.58,17.63,7.58h71.67l10.24-2.46l0.76-0.95L1083.71,1787.84z M834.04,1784.05
		c-2.27,1.33-5.3,3.6-15.35,3.6c-9.11,0-18.96-4.74-18.96-17.82v-21.23c0-11.76,8.91-18.02,18.39-18.02
		c10.24,0,15.92,5.5,15.92,16.12V1784.05z"/>
	<polygon class="st28" points="839.39,1705.57 840.18,1704.8 840.18,1692.1 839.39,1691.31 826.74,1691.31 825.97,1692.1 
		825.97,1704.8 826.74,1705.57 	"/>
	<polygon class="st28" points="816,1705.57 816.71,1704.8 816.71,1692.1 816,1691.31 803.25,1691.31 802.53,1692.1 802.53,1704.8 
		803.25,1705.57 	"/>
	<polygon class="st28" points="28.5,1705.57 29.22,1704.75 29.22,1692.1 28.5,1691.34 15.71,1691.34 14.99,1692.1 14.99,1704.75 
		15.71,1705.57 	"/>
	<polygon class="st28" points="51.92,1705.57 52.62,1704.75 52.62,1692.1 51.92,1691.34 39.15,1691.34 38.43,1692.1 38.43,1704.75 
		39.15,1705.57 	"/>
	<path class="st28" d="M695.44,1787.84v-102.77l-0.95-0.76l-10.05,2.66l-0.57,0.37l-0.76,0.57v99.93l1.33,4.55h-33.18
		c-8.34,0-16.69-1.7-20.29-3.03c1.14-3.23,1.71-7.02,1.71-11.19v-40.95h-0.38l-1.14-0.76l-9.67,2.66l-0.76,0.19l-0.38,0.38v36.02
		c0,13.08-7.39,17.82-16.11,17.82c-3.41,0-12.33-2.46-15.93-3.41c0.95-3.23,1.71-6.64,1.71-10.81v-42.28l-0.95-0.76l-9.86,2.66
		l-0.76,0.19l-0.56,0.76h-0.19v35.83c0,13.08-6.06,17.82-14.79,17.82c-3.23,0-12.52-2.66-15.55-3.41v-53.1l-0.95-0.76l-9.86,2.66
		l-0.57,0.19l-0.75,0.76v47.01l-1.52,5.5H424.92c-2.09-1.52-3.98-3.79-3.98-6.06v-31.86c0-11.75,6.45-18.01,16.11-18.01h13.84
		c9.3,0,15.55,3.03,17.45,4.17l0.76-0.56l0.37-1.9c0,0-3.41-12.7-20.29-12.7h-12.7c-15.74,0-27.69,9.29-27.69,26.36v27.11
		c0,4.93,1.33,10.62,5.69,13.46h-95.63c-5.5,0-7.58-0.76-8.91-2.27v-62l-0.76-0.76l-10.05,2.84c0,0-8.72-4.74-17.63-4.74
		c-15.74,0-30.34,9.29-30.34,26.36v25.98c0,17.81,12.51,26.73,26.17,26.73c15.17,0,19.91-9.1,21.04-11.94l-0.76,6.82v5.12
		c0,11.56-6.06,20.48-17.82,20.48c-4.17,0-12.89-0.76-16.68-6.82l-0.76-0.38l-2.47,1.14l-0.19,0.94
		c4.36,10.05,15.55,14.41,23.51,14.41c14.03,0,26.17-6.25,26.74-31.66c2.84,1.14,6.44,1.9,10.61,1.9h220.91l0.76-0.56l4.36-11.76
		c0.57,2.08,5.12,12.32,21.43,12.32c8.72,0,15.35-3.79,18.96-11.18c1.7,3.03,7.58,11.18,22.37,11.18c8.72,0,15.93-3.79,19.91-11.38
		c2.46,4.18,8.34,11.38,21.23,11.38h37.54l10.43-2.46l0.76-0.95L695.44,1787.84z M297.62,1790.12c-2.08,1.14-5.12,3.41-15.17,3.41
		c-9.1,0-18.96-4.74-18.96-17.82v-21.24c0-11.75,8.91-18.01,18.39-18.01c10.24,0,15.73,5.5,15.73,16.12V1790.12z"/>
	<path class="st28" d="M129.63,1787.84l0.19-59.73l-0.95-0.76l-9.86,2.65l-0.76,0.19l-0.76,0.76v56.88l1.33,4.55H75.09
		c-8.91,0-16.5-3.6-16.5-16.68v-53.47l-0.76-0.76l-10.05,2.84c0,0-8.53-4.74-17.63-4.74c-15.73,0-30.15,9.3-30.15,26.36v25.97
		c0,17.83,12.52,26.74,25.98,26.74c15.36,0,20.29-9.1,21.62-11.94c2.84,11.76,11.37,17.82,22.37,17.82h52.45l10.43-2.46l0.57-0.95
		L129.63,1787.84z M46.46,1784.24c-2.09,1.14-5.31,3.41-15.36,3.41c-8.91,0-18.96-4.74-18.96-17.82v-21.23
		c0-11.76,9.1-18.02,18.58-18.02c10.24,0,15.74,5.5,15.74,16.12V1784.24z"/>
	<path class="st28" d="M223.95,1751.87c0-17.15-12.09-26.49-27.83-26.49h-12.68c-16.99,0-20.36,12.77-20.36,12.77l0.46,1.97
		l0.79,0.42c1.81-1.04,8.01-4.11,17.41-4.11h13.91c9.45,0,16.02,6.24,16.02,17.99v33.34l1.32,4.57h-40.09
		c-10.21,0-19.96-2.41-22.12-3.53l-1.05,2.37c1.21,2.74,6.8,13.12,21.8,13.39v0.02h45.03l10.42-2.51l0.77-0.88l-3.81-13.44V1751.87z
		"/>
	<path class="st28" d="M720.78,1687.04l-0.67,0.23l-0.74,0.67v116.63c11.35-6.36,12.3-19.73,12.3-19.73v-99.82l-1.09-0.63
		L720.78,1687.04z"/>
	<polygon class="st28" points="1437,1705.57 1437.72,1704.8 1437.72,1692.13 1437,1691.34 1424.35,1691.34 1423.54,1692.13 
		1423.54,1704.8 1424.35,1705.57 	"/>
	<polygon class="st28" points="1460.44,1705.57 1461.23,1704.8 1461.23,1692.13 1460.44,1691.34 1447.77,1691.34 1446.98,1692.13 
		1446.98,1704.8 1447.77,1705.57 	"/>
	<path class="st28" d="M2064.44,1684.38l-9.77,2.65l-0.67,0.21l-0.72,0.67v116.67c11.38-6.34,12.28-19.76,12.28-19.76v-99.82
		L2064.44,1684.38z"/>
	<path class="st28" d="M2029.15,1787.84v-102.77l-0.76-0.76l-10.05,2.66l-0.57,0.19l-0.75,0.76v99.93l1.33,4.55h-47.03v-20.48
		c0-17.25-12.51-26.54-29.2-26.54c-16.88,0-29.39,9.3-29.39,26.54v20.48h-46.65v-20.48c0-17.25-12.51-26.54-29.39-26.54
		c-16.88,0-29.2,9.3-29.2,26.54v20.48h-58.38c-8.91,0-16.5-3.6-16.5-16.68v-90.63l-0.57-0.76l-10.24,2.66l-0.56,0.19l-0.76,0.76
		v87.79c0,13.08-7.59,16.68-16.5,16.68h-43.61c4.36-2.84,5.87-8.53,5.87-13.46v-16.87c0-17.07-12.13-26.36-27.87-26.36h-56.69
		c-9.86,0-14.22-4.56-14.22-15.17v-6.63c0.19-10.05,4.55-14.04,14.22-14.04l8.34-0.19c9.29,0,15.55,3.22,17.26,4.17l0.95-0.38
		l0.38-1.9c0,0-3.41-12.89-20.29-12.89h-6.64c-15.17,0-26.35,8.54-26.35,23.89v10.24c0,15.36,11.18,23.9,26.35,23.9h56.31
		c9.48,0,15.93,6.25,15.93,18.01v21.62c0,2.28-1.9,4.55-3.98,6.06h-166.17c-9.1,0-16.49-3.6-16.49-16.68v-21.24h-0.19v-32.23
		l-0.76-0.76l-10.05,2.84c0,0-8.53-4.74-17.63-4.74c-15.74,0-30.15,9.3-30.15,26.36v25.97c0,17.83,12.52,26.74,25.98,26.74
		c15.35,0,20.29-9.1,21.42-11.94l0.19,0.19c2.85,11.57,11.57,17.64,22.37,17.64h230.64c7.21,0,13.27-2.46,17.44-7.4
		c4.18,4.93,10.43,7.4,17.45,7.4h65.39c4.17,10.24,14.41,15.74,27.3,15.74c12.89,0,23.13-5.5,27.3-15.74h50.62
		c4.36,10.24,14.6,15.74,27.5,15.74c12.7,0,23.13-5.5,27.3-15.74h52.52l10.42-2.46l0.76-0.95L2029.15,1787.84z M1454.96,1784.24
		c-2.08,1.14-5.12,3.41-15.35,3.41c-8.92,0-18.78-4.74-18.78-17.82v-21.23c0-11.76,8.92-18.02,18.4-18.02
		c10.24,0,15.73,5.5,15.73,16.12V1784.24z M1853.76,1791.26c0,11.75-6.44,18.01-17.06,18.01c-11,0-17.26-6.26-17.26-18.01v-16.88
		c0-11.95,6.26-18.02,17.26-18.02c10.62,0,17.06,6.06,17.06,18.02V1791.26z M1959.19,1791.26c0,11.75-6.45,18.01-17.06,18.01
		c-11,0-17.26-6.26-17.26-18.01v-16.88c0-11.95,6.26-18.02,17.26-18.02c10.61,0,17.06,6.06,17.06,18.02V1791.26z"/>
	<g>
		<polygon class="st4" points="1899.79,984.86 1898.49,986.12 1898.49,1007.89 1899.79,1009.19 1921.55,1009.19 1922.87,1007.89 
			1922.87,986.12 1921.55,984.86 		"/>
		<path class="st4" d="M1902.56,1035.73l-2.37,0.63v127.17c0,19.69-10.66,34.82-30.5,34.82c-7.43,0-22.17-0.97-28.97-11.68
			l-1.32-0.46l-3.85,1.93l-0.63,1.49c7.66,17.29,21.5,24.84,35.26,24.84c24.35,0,50.98-11.03,50.98-56.25v-125.87l-1.32-1.35
			L1902.56,1035.73z"/>
		<polygon class="st4" points="1652.15,1009.21 1653.38,1007.91 1653.38,986.11 1652.15,984.84 1630.35,984.84 1628.98,986.11 
			1628.98,1007.91 1630.35,1009.21 		"/>
		<polygon class="st4" points="1611.84,1009.21 1613.21,1007.91 1613.21,986.11 1611.84,984.84 1590.09,984.84 1588.82,986.11 
			1588.82,1007.91 1590.09,1009.21 		"/>
		<path class="st4" d="M1621.11,1163.45c28.82,0,50.25-15.92,50.25-45.31v-45.13c0-29.39-21.43-45.5-50.25-45.5
			c-28.82,0-50.43,16.12-50.43,45.5v45.13C1570.67,1147.53,1592.29,1163.45,1621.11,1163.45z M1591.72,1077.18
			c0-20.1,10.43-30.72,29.39-30.72c18.39,0,29.39,10.62,29.39,30.72v36.4c0,20.29-11,30.9-29.39,30.9
			c-18.96,0-29.39-10.62-29.39-30.9V1077.18z"/>
		<path class="st4" d="M1829.21,1129.58V958.3l-1.76-1.21l-16.88,4.64l-1.14,0.28l-1.23,1.28v200.2
			C1827.65,1152.51,1829.21,1129.58,1829.21,1129.58z"/>
		<path class="st4" d="M1670.25,1189.57c7.66,17.29,21.54,24.89,35.26,24.89c24.35,0,50.93-11.1,50.93-56.29v-125.91l-1.28-1.32
			l-17.32,4.74l-2.28,0.65v127.12c0,19.73-10.75,34.89-30.55,34.89c-7.48,0-22.15-1.02-28.95-11.7l-1.32-0.49l-3.92,1.95
			L1670.25,1189.57z"/>
		<path class="st4" d="M1078.65,958.3l-1.76-1.21l-16.88,4.64l-1.14,0.28l-1.23,1.28v200.2c19.45-10.98,21.01-33.92,21.01-33.92
			V958.3z"/>
		<path class="st4" d="M925.52,1186.62l-1.32-0.49l-3.92,1.95l-0.58,1.49c7.66,17.29,21.54,24.89,35.26,24.89
			c24.35,0,50.93-11.1,50.93-56.29v-125.91l-1.28-1.32l-17.32,4.74l-2.28,0.65v127.12c0,19.73-10.75,34.89-30.55,34.89
			C946.99,1198.32,932.32,1197.3,925.52,1186.62z"/>
		<path class="st4" d="M2064.42,1031.1l-17.45,4.74c0,0-14.6-8.34-30.15-8.34c-26.92,0-51.76,16.12-51.95,45.5v44.56
			c0.19,30.52,21.61,45.88,44.75,45.88c26.36,0,34.32-15.74,36.41-20.48l-1.33,11.57v8.91c0,19.72-10.62,34.89-30.53,34.89
			c-7.39,0-21.99-0.94-28.82-11.56l-1.32-0.56l-3.98,1.9l-0.57,1.51c7.58,17.26,21.42,24.84,35.27,24.84
			c24.46,0,51.01-10.99,51.01-56.12v-125.9L2064.42,1031.1z M2044.7,1138.61c-3.6,1.9-8.91,5.88-26.17,5.88
			c-15.54,0-32.42-7.96-32.42-30.52v-36.6c0-20.09,15.36-30.9,31.48-30.9c17.82,0,27.11,9.48,27.11,27.88V1138.61z"/>
		<path class="st4" d="M1219.73,1163.2h46.49c7.2,17.44,24.84,26.73,46.83,26.73c21.8,0,39.44-9.29,46.83-26.73l4.63,0.03
			l-0.01,0.05l16.65,0.06l16.99,0.11l0.02-0.05l15.11,0.05l17.82-4.17l1.33-1.52l-6.45-23.14l-0.19-176.33l-1.33-1.14l-17.26,4.56
			l-1.13,0.37l-1.14,1.14v171.41l2.08,7.97l-43.55-0.25v-35.46c0-29.58-21.61-45.5-50.43-45.5c-28.82,0-50.44,15.92-50.44,45.5
			v35.46h-42.76v-109.92l-1.33-1.32l-17.45,4.74c0,0-14.6-8.34-30.15-8.34c-26.92,0-51.76,16.12-51.95,45.5v44.56
			c0.19,30.52,21.61,45.88,44.75,45.88c26.36,0,34.32-15.74,36.41-20.48l-1.33,11.57v8.91c0,19.72-10.62,34.89-30.53,34.89
			c-7.39,0-21.99-0.94-28.82-11.56l-1.32-0.56l-3.98,1.9l-0.57,1.51c7.58,17.26,21.42,24.84,35.27,24.84
			C1192.4,1214.45,1217.87,1204.25,1219.73,1163.2z M1283.66,1111.06c0-20.29,10.43-30.72,29.39-30.72
			c18.39,0,29.39,10.43,29.39,30.72v29.01c0,20.1-10.99,30.9-29.39,30.9c-18.96,0-29.39-10.8-29.39-30.9V1111.06z M1198.8,1138.61
			c-3.6,1.9-8.91,5.88-26.17,5.88c-15.54,0-32.42-7.96-32.42-30.52v-36.6c0-20.09,15.36-30.9,31.48-30.9
			c17.82,0,27.11,9.48,27.11,27.88V1138.61z"/>
		<path class="st4" d="M1488.17,1129.58V958.3l-1.83-1.21l-16.81,4.64l-1.09,0.28l-1.28,1.28v200.2
			C1486.56,1152.51,1488.17,1129.58,1488.17,1129.58z"/>
		<path class="st4" d="M2046.97,1403.5c0,0-14.6-8.16-30.15-8.16c-26.92,0-51.76,15.93-51.95,45.32v44.75
			c0.19,30.34,21.61,45.89,44.75,45.89c26.36,0,34.32-15.93,36.41-20.48l-1.33,11.56v8.92c0,19.71-10.62,34.89-30.53,34.89
			c-7.39,0-21.99-0.95-28.82-11.76l-1.32-0.57l-3.98,2.09l-0.57,1.52c7.58,17.25,21.42,24.83,35.27,24.83
			c24.46,0,51.01-11.18,51.01-56.31v-125.9l-1.33-1.32L2046.97,1403.5z M2044.7,1506.27c-3.6,2.08-8.91,6.07-26.17,6.07
			c-15.54,0-32.42-8.16-32.42-30.72v-36.4c0-20.29,15.36-30.91,31.48-30.91c17.82,0,27.11,9.48,27.11,27.68V1506.27z"/>
		<polygon class="st4" points="54.49,1340.34 54.49,1361.95 55.79,1363.23 77.4,1363.23 78.7,1361.95 78.7,1340.34 77.4,1339.04 
			55.79,1339.04 		"/>
		<polygon class="st4" points="18.56,1339.04 17.27,1340.34 17.27,1361.95 18.56,1363.23 40.15,1363.23 41.45,1361.95 
			41.45,1340.34 40.15,1339.04 		"/>
		<polygon class="st4" points="137.32,1184.69 137.32,1206.3 138.62,1207.57 160.23,1207.57 161.53,1206.3 161.53,1184.69 
			160.23,1183.39 138.62,1183.39 		"/>
		<polygon class="st4" points="100.09,1184.69 100.09,1206.3 101.39,1207.57 122.98,1207.57 124.28,1206.3 124.28,1184.69 
			122.98,1183.39 101.39,1183.39 		"/>
		<path class="st4" d="M382.17,1498.31c-2.84,0.94-5.88,1.7-8.72,2.46c-3.03,0.76-5.31,1.14-7.01,1.14h-29.77
			c-9.29,0-16.5-2.66-21.62-7.78c-4.93-5.12-7.39-12.89-7.39-22.94v-32.99c0-10.05,2.46-17.64,7.39-22.76
			c5.12-5.12,12.33-7.78,21.62-7.78c9.1,0,16.11,2.47,21.23,7.59c4.93,4.74,7.59,12.13,7.96,21.61l1.14,1.33h18.4l1.32-1.33v-2.84
			c0-7.2-1.32-13.84-3.79-19.34c-2.47-5.68-5.88-10.43-10.43-14.03c-4.36-3.8-9.67-6.64-15.92-8.72c-6.07-1.9-12.71-2.84-19.91-2.84
			c-7.02,0-13.65,0.94-19.91,2.84c-6.07,2.08-11.38,4.93-15.74,8.72c-4.55,3.6-7.96,8.34-10.42,14.03c-2.66,5.5-3.8,12.14-3.8,19.34
			v41.72c0,10.24,2.66,19.15,7.78,26.16H226.5v-109.97l-1.33-1.14l-18.2,2.65l-1.52,1.52v106.94H95.94v-108.27l-1.32-1.32
			l-17.26,4.74c-3.03-1.33-5.88-2.66-9.1-3.8c-2.84-1.14-5.88-2.08-9.67-3.04c-3.6-0.76-7.39-1.13-11.19-1.13
			c-6.63,0-12.89,0.94-18.77,2.84c-5.69,2.08-10.62,4.93-14.79,8.72c-4.36,3.6-7.58,8.34-10.05,14.03c-2.47,5.5-3.8,12.14-3.8,19.34
			v44.18c0,15.17,3.99,26.54,11.57,34.14c7.59,7.58,17.07,11.37,28.63,11.37c6.45,0,12.14-0.76,16.5-2.46
			c4.36-1.52,7.96-3.42,10.61-5.88c2.85-2.08,4.74-4.36,6.26-6.64c1.33-2.28,2.27-3.98,2.65-5.3l-1.13,13.84v5.88h283.76
			c5.69,0,10.62-0.76,14.6-2.08c4.17-1.52,7.58-3.23,10.43-5.31c2.84-2.08,4.93-4.36,6.44-6.82c1.52-2.66,2.85-7.4,3.61-9.86
			l-0.95-4.36C389.19,1496.03,385.59,1497.36,382.17,1498.31z M75.09,1499.06c-1.33,0.38-3.04,0.94-5.31,1.52
			c-2.47,0.76-4.93,1.32-7.4,2.08c-2.65,0.56-5.3,1.14-7.58,1.7c-2.46,0.38-4.36,0.76-5.69,0.76c-3.98,0-7.58-0.56-10.99-1.7
			c-3.23-0.95-6.26-2.66-8.92-5.12c-2.46-2.46-4.55-5.5-6.06-9.48c-1.52-3.98-2.28-8.72-2.28-14.22v-36.22
			c0-10.05,2.46-17.63,7.58-22.75c5.12-5.31,11.76-7.97,19.91-7.97c17.83,0,26.74,9.3,26.74,27.68V1499.06z"/>
		<polygon class="st4" points="667.46,1338.79 666.18,1340.07 666.18,1361.66 667.46,1362.98 689.07,1362.98 690.35,1361.66 
			690.35,1340.07 689.07,1338.79 		"/>
		<polygon class="st4" points="726.25,1362.98 727.57,1361.66 727.57,1340.07 726.25,1338.79 704.66,1338.79 703.34,1340.07 
			703.34,1361.66 704.66,1362.98 		"/>
		<polygon class="st4" points="426.27,1020.37 427.55,1019.05 427.55,997.46 426.27,996.18 404.66,996.18 403.38,997.46 
			403.38,1019.05 404.66,1020.37 		"/>
		<polygon class="st4" points="440.54,997.46 440.54,1019.05 441.86,1020.37 463.45,1020.37 464.77,1019.05 464.77,997.46 
			463.45,996.18 441.86,996.18 		"/>
		<polygon class="st4" points="444.87,981.3 446.19,979.97 446.19,958.38 444.87,957.11 423.28,957.11 421.96,958.38 421.96,979.97 
			423.28,981.3 		"/>
		<polygon class="st4" points="803.92,1556.34 802.59,1557.64 802.59,1579.21 803.92,1580.53 825.55,1580.53 826.83,1579.21 
			826.83,1557.64 825.55,1556.34 		"/>
		<path class="st4" d="M870.81,1434.22c0-7.2-1.14-13.66-3.6-19.34c-2.66-5.5-6.07-10.24-10.43-14.04
			c-4.55-3.79-9.86-6.64-15.93-8.53c-6.25-2.09-12.89-3.04-19.91-3.04h-19.15c-5.88,0-11,0.76-15.17,2.08
			c-4.17,1.32-7.58,3.22-10.43,5.12c-2.84,2.09-5.31,4.36-7.01,7.02c-1.71,2.46-2.85,4.93-3.61,7.4l1.14,4.36
			c3.79-1.33,7.21-2.46,10.62-3.61c2.84-0.75,5.88-1.7,8.72-2.46c2.85-0.76,5.31-1.13,7.21-1.13h27.68c9.29,0,16.49,2.46,21.61,7.58
			c4.93,5.12,7.59,12.7,7.59,22.94v62.57l0.19,1.14H707.17v-110.16l-1.14-0.94l-18.2,2.46l-1.33,1.7v106.94h-92.35v-35.46
			c0-29.58-21.42-45.5-50.24-45.5c-29.01,0-50.43,15.92-50.43,45.5v35.46h-32.99c-8.72-0.19-12.9-2.84-18.02-7.96
			c-5.12-5.12-7.58-12.7-7.58-22.76v-153.58l-1.33-1.15l-18.2,2.66l-1.33,1.52v157.19c0,7.2,1.14,13.66,3.8,19.34
			c2.46,5.68,5.87,10.42,10.42,14.04c4.36,3.79,9.67,6.63,15.74,8.72c6.26,1.89,9.86,2.84,17.06,2.84h36.03
			c7.2,17.44,24.84,26.73,46.83,26.73c21.8,0,39.44-9.29,46.64-26.73h269.82l15.74-2.28l1.33-1.52l-6.64-22.94V1434.22z
			 M573.3,1500.01c0,20.1-11.19,30.9-29.39,30.9c-18.96,0-29.39-10.8-29.39-30.9V1471c0-20.29,10.43-30.72,29.39-30.72
			c18.2,0,29.39,10.43,29.39,30.72V1500.01z"/>
		<path class="st4" d="M1007.31,1319.45l-1.28,1.56v150.24c0,10.08-2.55,17.71-7.68,22.91c-5.13,5.2-12.3,7.78-21.47,7.78h-8.8
			l-2.39-8.06v-175.98l-1.32-1.05l-18.18,2.6l-1.3,1.56v179.88l0.49,1.04h-19.89c-1.9,0-4.27-0.37-7.17-1.16
			c-2.85-0.77-5.76-1.6-8.68-2.46c-3.32-1.07-6.87-2.25-10.7-3.65l-1.02,4.39c0.67,2.46,1.86,7.27,3.53,9.68
			c1.65,2.44,3.85,4.67,6.64,6.78c2.76,2.07,6.15,3.81,10.24,5.2c4.08,1.37,8.89,2.18,14.46,2.34h44.11c7.13,0,13.76-1,19.92-2.99
			c6.15-2,11.47-4.85,15.85-8.61c4.46-3.71,7.89-8.4,10.45-14.04c2.48-5.62,3.76-12.12,3.76-19.38v-160.13l-1.32-1.05
			L1007.31,1319.45z"/>
		<polygon class="st4" points="1069.42,1319.45 1068.15,1321 1068.15,1519.39 1069.19,1520.66 1087.67,1520.66 1088.97,1519.39 
			1088.97,1317.89 1087.67,1316.85 		"/>
		<polygon class="st4" points="1188.7,1340.34 1188.7,1361.95 1190.02,1363.23 1211.61,1363.23 1212.89,1361.95 1212.89,1340.34 
			1211.61,1339.04 1190.02,1339.04 		"/>
		<polygon class="st4" points="1225.9,1340.34 1225.9,1361.95 1227.22,1363.23 1248.79,1363.23 1250.11,1361.95 1250.11,1340.34 
			1248.79,1339.04 1227.22,1339.04 		"/>
		<polygon class="st4" points="1365.53,1556.34 1364.25,1557.64 1364.25,1579.21 1365.53,1580.53 1387.12,1580.53 1388.47,1579.21 
			1388.47,1557.64 1387.12,1556.34 		"/>
		<polygon class="st4" points="1402.75,1556.34 1401.43,1557.64 1401.43,1579.21 1402.75,1580.53 1424.39,1580.53 1425.64,1579.21 
			1425.64,1557.64 1424.39,1556.34 		"/>
		<polygon class="st4" points="186.6,1556.34 185.3,1557.64 185.3,1579.21 186.6,1580.53 208.19,1580.53 209.49,1579.21 
			209.49,1557.64 208.19,1556.34 		"/>
		<polygon class="st4" points="223.78,1556.34 222.5,1557.64 222.5,1579.21 223.78,1580.53 245.37,1580.53 246.67,1579.21 
			246.67,1557.64 245.37,1556.34 		"/>
		<polygon class="st4" points="1671.97,1340.34 1671.97,1361.95 1673.29,1363.23 1694.95,1363.23 1696.18,1361.95 1696.18,1340.34 
			1694.95,1339.04 1673.29,1339.04 		"/>
		<polygon class="st4" points="1735.58,1340.07 1735.58,1361.66 1736.84,1362.98 1758.43,1362.98 1759.75,1361.66 1759.75,1340.07 
			1758.43,1338.79 1736.84,1338.79 		"/>
		<polygon class="st4" points="1795.65,1362.98 1796.97,1361.66 1796.97,1340.07 1795.65,1338.79 1774.06,1338.79 1772.76,1340.07 
			1772.76,1361.66 1774.06,1362.98 		"/>
		<path class="st4" d="M1902.4,1321.46l-1.09,0.28l-1.25,1.28v200.2c19.45-11,21.01-33.89,21.01-33.89v-171.29l-1.86-1.18
			L1902.4,1321.46z"/>
		<path class="st4" d="M1858.69,1317.99l-1.33-1.15l-17.25,4.56l-1.14,0.38l-1.13,1.32v171.22l2.27,7.96h-63.52v-110.16l-1.14-1.14
			l-18.4,2.66l-1.13,1.52v107.13h-61.43v-110.16l-1.33-1.14l-18.2,2.66l-1.33,1.52v107.13h-106.44v-35.46
			c0-29.58-21.61-45.5-50.43-45.5c-28.82,0-50.44,15.92-50.44,45.5v35.46h-60.86v-110.16l-1.32-0.94l-18.21,2.46l-1.32,1.7v106.94
			h-117.31v-108.27l-1.33-1.33l-17.07,4.56c-3.03-1.32-6.06-2.66-9.1-3.8c-2.84-1.13-6.06-2.08-9.67-2.84
			c-3.6-0.94-7.39-1.32-11.18-1.32c-6.83,0-13.09,0.94-18.77,3.04c-5.69,1.89-10.62,4.74-14.98,8.53
			c-4.36,3.8-7.58,8.34-10.05,14.04c-2.47,5.68-3.6,12.14-3.6,19.34v44.37c0,14.98,3.79,26.36,11.37,33.94
			c7.78,7.78,17.26,11.56,28.82,11.56c6.45,0,11.95-0.76,16.5-2.46c4.36-1.7,7.96-3.6,10.62-5.88c2.65-2.28,4.74-4.56,6.06-6.82
			c1.33-2.08,2.28-3.8,2.85-4.93l-1.33,11.19v7.96h223.5c7.2,17.44,24.84,26.73,46.83,26.73c21.8,0,39.44-9.29,46.83-26.73h282.59
			l17.82-4.18l1.33-1.52l-6.45-23.13L1858.69,1317.99z M1246.62,1499.06c-1.33,0.38-3.03,0.94-5.5,1.52
			c-2.27,0.76-4.74,1.32-7.39,2.08c-2.66,0.56-5.12,1.14-7.59,1.7c-2.46,0.38-4.36,0.76-5.69,0.76c-3.79,0-7.39-0.56-10.8-1.7
			c-3.42-0.95-6.45-2.66-8.92-5.12c-2.65-2.46-4.74-5.5-6.25-9.48c-1.33-3.98-2.09-8.72-2.09-14.22v-36.22
			c0-10.05,2.47-17.63,7.59-22.75c4.93-5.31,11.56-7.97,19.72-7.97c17.83,0,26.93,9.3,26.93,27.68V1499.06z M1546.14,1500.01
			c0,20.1-10.99,30.9-29.39,30.9c-18.96,0-29.39-10.8-29.39-30.9V1471c0-20.29,10.43-30.72,29.39-30.72
			c18.39,0,29.39,10.43,29.39,30.72V1500.01z"/>
		<path class="st4" d="M847.12,1163.14v0.04h75.15l17.39-4.18l1.28-1.47l-6.35-22.43v-59.89c0-28.63-20.18-44.2-46.44-44.2h-21.15
			c-28.36,0-33.97,21.31-33.97,21.31l0.78,3.29l1.32,0.7c3.02-1.74,13.36-6.86,29.05-6.86h23.2c15.77,0,26.73,10.42,26.73,30.02
			v55.63l2.21,7.63h-66.9c-17.04,0-33.32-4.03-36.92-5.89l-1.74,3.95C812.76,1145.36,822.1,1162.68,847.12,1163.14z"/>
		<polygon class="st4" points="577.26,1191.21 577.26,1212.8 578.56,1214.12 600.15,1214.12 601.47,1212.8 601.47,1191.21 
			600.15,1189.93 578.56,1189.93 		"/>
		<path class="st4" d="M747.31,1129.59V958.29l-1.86-1.18l-16.81,4.62l-1.09,0.28l-1.25,1.28v200.2
			C745.75,1152.48,747.31,1129.59,747.31,1129.59z"/>
		<path class="st4" d="M440.09,1144.75c2.81,4.99,12.5,18.43,36.88,18.43c14.37,0,26.25-6.24,32.82-18.75
			c4.06,6.88,13.75,18.75,35,18.75h0.01l-0.01,0.23h127.64l17.82-4.18l1.33-1.52l-6.45-23.13l-0.19-176.33l-1.33-1.15l-17.25,4.56
			l-1.14,0.38l-1.13,1.32v171.22l2.27,7.96h-63.52v-110.16l-1.14-1.14l-18.4,2.66l-1.13,1.52v107.13l-36.14,0.62
			c-13.75,0-27.51-2.81-33.44-4.99c1.88-5.33,2.82-11.57,2.82-18.45v-67.5h-0.63l-1.88-1.25l-15.94,4.38l-1.25,0.31l-0.63,0.63
			v59.38c0,21.56-12.19,29.38-26.56,29.38c-5.62,0-20.32-4.06-26.25-5.62c1.56-5.33,2.82-10.94,2.82-17.82v-69.69l-1.56-1.25
			l-16.25,4.38l-1.25,0.32l-0.93,1.25h-0.32v59.06c0,21.56-10,29.38-24.37,29.38c-5.32,0-20.63-4.38-25.63-5.62v-87.52l-1.56-1.25
			l-16.25,4.38l-0.94,0.32l-1.24,1.25v77.49l-2.5,9.06H265.2v-110.93l-1.28-1.32l-17.32,4.74l-2.28,0.65v127.12
			c0,19.73-10.75,34.89-30.55,34.89c-7.48,0-22.15-1.02-28.95-11.7l-1.32-0.49l-3.92,1.95l-0.58,1.49
			c7.66,17.29,21.54,24.89,35.26,24.89c23.42,0,48.89-10.28,50.8-51.27h100.01l1.25-0.93l7.19-19.38
			c0.94,3.43,8.44,20.31,35.32,20.31C423.21,1163.18,434.15,1156.94,440.09,1144.75z"/>
		<polygon class="st4" points="72.9,1003.01 74.2,1001.73 74.2,980.12 72.9,978.82 51.29,978.82 49.99,980.12 49.99,1001.73 
			51.29,1003.01 		"/>
		<polygon class="st4" points="35.65,1003.01 36.95,1001.73 36.95,980.12 35.65,978.82 14.06,978.82 12.76,980.12 12.76,1001.73 
			14.06,1003.01 		"/>
		<path class="st4" d="M40.2,1163.49c6.45,0,12.14-0.76,16.5-2.46c4.36-1.52,7.96-3.42,10.61-5.88c2.85-2.08,4.74-4.36,6.26-6.64
			c1.33-2.28,2.27-3.98,2.65-5.31l-1.13,13.84v5.88h101.67l0.08,0.26l17.83-4.21l0.97-1.63l-6.48-22.69l0.32-102.13l-1.62-1.3
			l-16.86,4.53l-1.3,0.33l-1.3,1.3v97.27l2.06,7.04H95.94v-108.27l-1.32-1.32l-17.26,4.74c-3.03-1.33-5.88-2.66-9.1-3.8
			c-2.84-1.14-5.88-2.08-9.67-3.04c-3.6-0.76-7.39-1.13-11.19-1.13c-6.63,0-12.89,0.94-18.77,2.84c-5.69,2.08-10.62,4.93-14.79,8.72
			c-4.36,3.6-7.58,8.34-10.05,14.03c-2.47,5.5-3.8,12.14-3.8,19.34v44.18c0,15.17,3.99,26.54,11.57,34.14
			C19.16,1159.7,28.64,1163.49,40.2,1163.49z M20.86,1078.17c0-10.05,2.46-17.63,7.58-22.75c5.12-5.31,11.76-7.97,19.91-7.97
			c17.83,0,26.74,9.3,26.74,27.68v63.72c-1.33,0.38-3.04,0.94-5.31,1.52c-2.47,0.76-4.93,1.32-7.4,2.08
			c-2.65,0.56-5.31,1.14-7.58,1.7c-2.46,0.38-4.36,0.76-5.69,0.76c-3.98,0-7.58-0.56-10.99-1.7c-3.23-0.95-6.26-2.66-8.92-5.12
			c-2.46-2.46-4.55-5.5-6.06-9.48c-1.52-3.98-2.28-8.72-2.28-14.22V1078.17z"/>
	</g>
</g>
</svg>
